<svg width="7" height="4" viewBox="0 0 7 4" fill="none" xmlns="http://www.w3.org/2000/svg">
<path fill-rule="evenodd" clip-rule="evenodd" d="M6.94008 0.259499C6.83104 0.0652505 6.59721 -0.0235756 6.35988 0.0390813C6.27383 0.0617903 6.21192 0.0986717 6.12433 0.179396C6.05896 0.239629 5.44634 0.869306 4.7629 1.57871C4.07949 2.28812 3.51316 2.86803 3.50438 2.86743C3.49561 2.86683 2.93688 2.29259 2.26279 1.59137C0.715558 -0.0181059 0.795189 0.0592207 0.644425 0.0194385C0.221946 -0.0920344 -0.147283 0.29752 0.0588093 0.637264C0.132884 0.759366 3.1179 3.84659 3.23045 3.91747C3.43855 4.04858 3.68694 4.022 3.87739 3.84824C3.93716 3.79373 4.65215 3.0577 5.46627 2.21264C6.57671 1.05997 6.95339 0.655663 6.97417 0.594084C7.01668 0.468211 7.00767 0.379861 6.94008 0.259499Z" fill="#242424"/>
</svg>
