<svg width="30" height="31" viewBox="0 0 30 31" fill="none" xmlns="http://www.w3.org/2000/svg">
<path fill-rule="evenodd" clip-rule="evenodd" d="M0.143848 0.148643L0 0.297225V15.5V30.7028L0.143848 30.8514L0.287637 31H7.96875H15.6499L15.7937 30.8514L15.9375 30.7028V26.8408V22.9788L19.8204 26.9894L23.7032 31H24.6096H25.5159L27.7579 28.6832L30 26.3664V25.4301V24.4938L26.8244 21.2103L23.6487 17.9268L24.0119 17.536C24.5936 16.9101 24.6536 17.0316 22.8357 15.1531C21.018 13.2749 21.1353 13.3368 20.5304 13.937L20.1529 14.3116L19.075 13.2037L17.9972 12.0958L17.4507 12.1372C17.1502 12.1599 16.8624 12.1907 16.8112 12.2055C16.7554 12.2216 16.5623 12.0847 16.3279 11.8628L15.9375 11.4932V5.89521V0.297225L15.7937 0.148643L15.6499 0H7.96875H0.287637L0.143848 0.148643ZM1.875 15.5V30.0312H1.40625H0.9375V15.5V0.96875H1.40625H1.875V15.5ZM5.29195 1.10498C5.35529 1.38132 5.44729 2.17163 5.50875 2.9668C5.58645 3.97266 5.67943 4.44971 5.91762 5.06438C6.32619 6.11875 6.97213 7.07738 7.61719 7.58671L7.82227 7.74867L6.02051 7.74933L4.21875 7.75V6.29688V4.84375H3.75H3.28125V9.44531V14.0469H3.75H4.21875V11.7311V9.41522L6.32895 11.5958L8.43908 13.7763L8.42367 15.8339L8.4082 17.8916L8.12145 17.498C7.48494 16.6245 7.21014 15.6683 7.1557 14.1377L7.11914 13.1084L6.6917 13.0781C6.16254 13.0406 6.18352 12.9851 6.22693 14.311C6.25201 15.0777 6.29027 15.4129 6.40471 15.8678C6.7534 17.2539 7.28566 18.1971 8.10035 18.8723L8.4375 19.1517V24.5915V30.0312H7.41908H6.40066L6.30604 29.3804C6.04002 27.5506 5.97809 25.5928 6.12264 23.583C6.32725 20.7382 6.07729 18.4441 5.41336 17.0736C4.99014 16.2 4.1802 15.5232 3.16406 15.1942L2.8418 15.0898L2.82691 8.0293L2.81203 0.96875H4.03635C5.25779 0.96875 5.26078 0.969053 5.29195 1.10498ZM8.4375 3.96582C8.4375 5.61421 8.41641 6.96289 8.39062 6.96289C8.36479 6.96289 8.19621 6.82702 8.01592 6.661C7.4468 6.13685 6.73377 4.82353 6.56906 3.99609C6.53262 3.81294 6.46271 3.1999 6.41379 2.63379C6.36486 2.06768 6.30873 1.46148 6.2891 1.28662L6.25342 0.96875H7.34543H8.4375V3.96582ZM11.4653 1.35922C11.6398 2.27311 11.7433 3.7527 11.7456 5.36784L11.748 7.01199L12.1772 7.05359C12.4133 7.07648 12.6225 7.07847 12.6422 7.05813C12.7159 6.98196 12.727 4.93832 12.6596 3.86646C12.594 2.82481 12.4777 1.67091 12.389 1.18236L12.3502 0.96875H13.6751H15V5.79161V10.6145L14.8698 10.4991C14.7571 10.3993 12.8599 8.64567 12.1448 7.98044L11.8972 7.75H10.6361H9.375V4.35792V0.965904L10.3857 0.982434L11.3965 0.999023L11.4653 1.35922ZM22.0312 2.42188V2.90625H22.5H22.9688V2.42188V1.9375H22.5H22.0312V2.42188ZM3.28125 3.39062V3.875H3.75H4.21875V3.39062V2.90625H3.75H3.28125V3.39062ZM22.0312 7.99219V12.1094H22.5H22.9688V7.99219V3.875H22.5H22.0312V7.99219ZM20.1562 5.8125V6.29688H20.625H21.0938V5.8125V5.32812H20.625H20.1562V5.8125ZM25.7812 5.8125V6.29688H26.25H26.7188V5.8125V5.32812H26.25H25.7812V5.8125ZM20.1562 8.96094V10.6562H20.625H21.0938V8.96094V7.26562H20.625H20.1562V8.96094ZM25.7812 11.3828V15.5H26.25H26.7188V11.3828V7.26562H26.25H25.7812V11.3828ZM23.9062 8.23438V8.71875H24.375H24.8438V8.23438V7.75H24.375H23.9062V8.23438ZM12.3111 9.43018L13.0737 10.1416L9.68707 10.1572L6.30041 10.1728L5.59676 9.4458L4.89316 8.71875H8.22076H11.5484L12.3111 9.43018ZM23.9062 11.3828V13.0781H24.375H24.8438V11.3828V9.6875H24.375H23.9062V11.3828ZM14.7809 11.7268C15.1277 12.0475 15.4045 12.3167 15.3961 12.325C15.3877 12.3333 14.7349 12.3999 13.9453 12.4732C12.4352 12.6132 12.2777 12.6545 12.2113 12.9275L12.1748 13.0781H10.6424H9.10998L8.17383 12.1094L7.23768 11.1406L10.6941 11.1421L14.1504 11.1436L14.7809 11.7268ZM22.5293 18.1641L27.4509 23.2501L24.9755 25.808L22.4999 28.3661L17.5854 23.2802L12.6709 18.1943L12.8749 15.8936C12.9871 14.6281 13.0958 13.5758 13.1166 13.5551C13.1373 13.5344 14.1431 13.4218 15.3516 13.3048C16.5601 13.1878 17.5621 13.089 17.5782 13.0851C17.5944 13.0813 19.8224 15.3668 22.5293 18.1641ZM12.0644 14.3345C12.0611 14.4927 12.0282 14.9292 11.9912 15.3046L11.9238 15.987L10.987 15.017L10.0502 14.0469H11.0603H12.0703L12.0644 14.3345ZM15.3677 15.8799C14.1683 17.1192 14.0625 17.2456 14.0625 17.4385C14.0625 17.6359 14.3242 17.9189 18.4136 22.1445C22.5029 26.3702 22.7768 26.6406 22.9678 26.6406C23.1544 26.6406 23.2768 26.5313 24.4761 25.2919C25.6754 24.0527 25.7812 23.9262 25.7812 23.7333C25.7812 23.536 25.5196 23.253 21.4302 19.0273C17.3409 14.8017 17.067 14.5312 16.876 14.5312C16.6893 14.5312 16.567 14.6406 15.3677 15.8799ZM11.8104 17.376C11.7969 17.4265 11.7677 17.7224 11.7456 18.0336L11.7054 18.5995L13.3527 20.3055L15 22.0116V23.0552V24.0989L14.6924 23.893C14.5232 23.7798 14.1935 23.5739 13.9597 23.4355C12.5217 22.584 11.5971 21.1022 11.5025 19.4976L11.4667 18.8906H10.9979H10.5292L10.565 19.4976C10.6469 20.8869 11.1803 22.1384 12.1219 23.1499C12.6251 23.6904 13.017 23.9982 13.7547 24.4319C14.0849 24.626 14.5002 24.9186 14.6776 25.0818L15 25.3788V27.705V30.0312H13.7759C12.5548 30.0312 12.5517 30.0309 12.5205 29.895C12.4572 29.6187 12.3652 28.8284 12.3038 28.0332C12.2246 27.008 12.1299 26.5337 11.8761 25.8904C11.3478 24.5514 10.5118 23.4965 9.62402 23.0487L9.375 22.9231V18.8337V14.7443L10.6051 16.0142C11.3767 16.811 11.8259 17.3184 11.8104 17.376ZM22.1772 15.8627L23.2302 16.9521L23.0988 17.0879L22.9673 17.2237L21.9017 16.1225C20.847 15.0327 20.8372 15.0202 20.9447 14.8974C21.0045 14.8293 21.0693 14.7734 21.0888 14.7734C21.1083 14.7734 21.5981 15.2636 22.1772 15.8627ZM17.4902 16.3477L18.0739 16.9531H16.875H15.6761L16.2598 16.3477C16.5808 16.0146 16.8577 15.7422 16.875 15.7422C16.8923 15.7422 17.1692 16.0146 17.4902 16.3477ZM3.26719 16.2613C4.1451 16.6323 4.68205 17.3889 4.94953 18.6319C5.27027 20.1225 5.33461 21.4542 5.18572 23.5225C5.04152 25.5258 5.13164 28.1963 5.39121 29.6106C5.42309 29.7844 5.44922 29.9502 5.44922 29.9789C5.44922 30.0077 4.85596 30.0312 4.13086 30.0312H2.8125V23.0643V16.0973L2.94434 16.1389C3.01682 16.1618 3.16213 16.2169 3.26719 16.2613ZM19.9512 18.8906L20.8873 19.8594H19.2174H17.5475L16.6113 18.8906L15.6752 17.9219H17.3451H19.015L19.9512 18.8906ZM22.7637 21.7969L23.6998 22.7656H22.0299H20.36L19.4238 21.7969L18.4877 20.8281H20.1576H21.8275L22.7637 21.7969ZM23.8035 24.5969L22.9688 25.4594L22.134 24.5969L21.2994 23.7344H22.9688H24.6381L23.8035 24.5969ZM28.6071 24.4444L29.0625 24.9122V25.4279V25.9437L27.0853 27.9875L25.1081 30.0312H24.6083H24.1086L23.642 29.5463L23.1755 29.0613L25.6354 26.5189C26.9882 25.1207 28.1079 23.9766 28.1234 23.9766C28.139 23.9766 28.3566 24.1871 28.6071 24.4444ZM9.79658 24.339C10.3657 24.8631 11.0787 26.1765 11.2434 27.0039C11.2799 27.1871 11.3498 27.8001 11.3987 28.3662C11.4476 28.9323 11.5038 29.5386 11.5234 29.7134L11.5591 30.0312H10.4671H9.375V27.0342C9.375 25.3858 9.39609 24.0371 9.42188 24.0371C9.44771 24.0371 9.61629 24.173 9.79658 24.339Z" fill="black"/>
</svg>
