<svg width="29" height="30" viewBox="0 0 29 30" fill="none" xmlns="http://www.w3.org/2000/svg">
<path fill-rule="evenodd" clip-rule="evenodd" d="M0.369243 0.114434C-0.019292 0.351328 0.000161167 0.0653319 0.000161167 5.53646V10.4932L0.144009 10.637C0.31645 10.8095 0.523345 10.8212 0.711431 10.6689C0.849595 10.5571 0.849829 10.5547 0.879067 8.89646L0.908364 7.23592L1.15065 7.6193C2.05135 9.04465 2.45067 10.4137 2.3803 11.8355C2.30811 13.2939 1.95081 14.2897 1.2751 14.9154L0.908364 15.2551L0.879067 13.7159C0.849946 12.1851 0.849009 12.176 0.711431 12.0646C0.523286 11.9124 0.31645 11.9241 0.144009 12.0966L0.000161167 12.2404L0.000395525 20.8417C0.000571306 29.2692 0.00291508 29.4468 0.115005 29.6305C0.348032 30.0128 0.200435 29.9996 4.24821 29.9996C8.29598 29.9996 8.14838 30.0128 8.38141 29.6305C8.49409 29.4458 8.49584 29.2214 8.49602 15.0113C8.49625 -0.936795 8.52836 0.359004 8.12717 0.114434C7.94641 0.00416016 7.80625 0 4.24821 0C0.690161 0 0.550005 0.00416016 0.369243 0.114434ZM9.74424 0.114434C9.34891 0.35543 9.37516 -0.227578 9.37516 8.31697C9.37516 15.9762 9.37633 16.0555 9.49235 16.1715C9.65026 16.3294 9.96749 16.3263 10.1131 16.1653C10.2205 16.0467 10.2259 15.8578 10.2541 11.2443L10.2834 6.44654L10.7521 6.80373C11.9702 7.73191 12.6967 8.69414 13.1358 9.96053C13.3258 10.5083 13.3288 10.5336 13.328 11.5426C13.3273 12.4554 13.3034 12.7062 13.111 13.8277C12.756 15.8962 12.7443 16.0235 12.7444 17.8121C12.7445 19.1142 12.7681 19.6498 12.8518 20.2437C13.1981 22.7012 13.7584 24.1627 14.7562 25.2114C15.2915 25.774 16.1035 26.2951 16.7433 26.4866L16.9923 26.5611V27.8496V29.138L16.4797 29.1031C16.1977 29.0839 15.8219 29.0245 15.6447 28.9712C14.8243 28.7243 13.9944 28.1698 13.4686 27.5173C12.8126 26.7028 12.5588 25.9242 12.4732 24.4625C12.405 23.2975 12.3133 22.795 12.0767 22.2895C11.7605 21.6137 11.229 21.1755 10.5483 21.0295L10.2541 20.9664V19.3972C10.2541 17.8983 10.2486 17.821 10.1326 17.6735C9.98043 17.48 9.66684 17.4618 9.49235 17.6363C9.37674 17.7519 9.37516 17.8315 9.37539 23.5982C9.37557 29.2918 9.37856 29.4478 9.49001 29.6305C9.72309 30.0129 9.57415 29.9996 13.6349 29.9994C17.2223 29.9992 17.3195 29.9962 17.5086 29.8809C17.8752 29.6573 17.8713 29.699 17.8713 26.0654V22.7721L23.0637 13.7833C25.9196 8.83951 28.2833 4.72271 28.3165 4.63482C28.4031 4.40525 28.3248 4.0868 28.1391 3.91318C28.0509 3.83068 27.2931 3.36791 26.4552 2.88475C25.6173 2.40158 24.2199 1.59457 23.3498 1.09131C21.6247 0.0936328 21.5198 0.0561914 21.1529 0.307207C21.0056 0.407988 20.6001 1.06354 19.4304 3.09234L17.9006 5.74564L17.8713 3.12164C17.8394 0.271172 17.8459 0.323965 17.5013 0.113848C17.3216 0.00433594 17.1752 0 13.6232 0C10.0652 0 9.925 0.00416016 9.74424 0.114434ZM2.05211 0.998906C3.66303 1.44158 4.79823 2.56664 5.21313 4.1318C5.29622 4.44504 5.35504 4.92164 5.39167 5.57684C5.42167 6.11455 5.48594 6.7449 5.53446 6.97758C5.76286 8.07311 6.38723 8.81701 7.26719 9.04213L7.58805 9.12422L7.60358 10.8901C7.62051 12.8176 7.63745 12.7271 7.28424 12.5933C6.86594 12.4348 6.69409 12.064 6.80559 11.5601C6.86336 11.2989 6.85909 11.2343 6.77565 11.107C6.57778 10.805 6.1804 10.8542 5.99946 11.2031C5.84788 11.4955 5.86141 12.1408 6.02694 12.5094C6.26764 13.0454 6.76071 13.4196 7.34085 13.5066L7.61735 13.548V18.5549V23.5618L7.26825 23.3169C6.42948 22.7285 5.57342 21.787 5.11545 20.949C4.93545 20.6197 4.85612 20.5305 4.70401 20.487C4.34161 20.383 4.0644 20.7316 4.20766 21.111C4.52436 21.95 5.86165 23.4314 6.98747 24.1903L7.61735 24.6149V26.8678V29.1207H5.93085H4.2444L4.26579 28.7252C4.29514 28.1822 4.14995 27.5441 3.86606 26.9682C3.3976 26.018 2.50862 25.3645 1.3893 25.1473L0.879478 25.0484L0.879595 23.0855C0.879771 20.995 0.931275 20.3881 1.17555 19.5992C1.51915 18.4896 2.23422 17.4876 3.10563 16.8947C3.40891 16.6883 3.75192 16.5052 3.78086 16.5342C3.79176 16.5451 3.76206 16.8042 3.71483 17.1098C3.6676 17.4155 3.62442 17.9919 3.61891 18.3907C3.60889 19.115 3.60901 19.1159 3.77067 19.255C3.96532 19.4224 4.15862 19.4324 4.34114 19.2846C4.46706 19.1827 4.47737 19.1266 4.49108 18.4726C4.49946 18.0717 4.5717 17.3575 4.65924 16.8096C5.13473 13.8353 5.18565 13.2861 5.13672 11.6597C5.05258 8.86277 4.46905 6.53361 3.54291 5.29834C2.91233 4.45723 1.9794 3.76734 1.12809 3.51258L0.879067 3.43805V2.1583V0.878496H1.24645C1.44854 0.878496 1.81106 0.932695 2.05211 0.998906ZM7.61735 4.54061C7.61735 8.61117 7.65081 8.3124 7.2195 8.09121C6.60098 7.77404 6.35635 7.11521 6.2711 5.5367C6.19153 4.06295 5.9329 3.16992 5.32704 2.27672C5.0643 1.8893 4.51487 1.30488 4.16032 1.03559L3.95524 0.879785L5.78629 0.879141L7.61735 0.878496V4.54061ZM11.6199 1.15682C11.5281 1.69477 11.5674 3.21557 11.6845 3.65678C11.9538 4.67051 12.4771 5.56242 13.2126 6.26103C14.1421 7.14398 15.3289 7.6885 16.6261 7.82713L16.9923 7.86627L16.9912 8.13703C16.9905 8.28598 16.9643 8.59236 16.933 8.81795C16.6906 10.5609 15.9735 11.8051 14.7371 12.6278C14.4718 12.8044 14.2253 12.9488 14.1895 12.9488C14.1462 12.9488 14.1385 12.8846 14.1667 12.7584C14.19 12.6537 14.2074 12.0933 14.2053 11.5133C14.2021 10.6159 14.1824 10.3887 14.0727 9.98982C13.8965 9.34846 13.3793 8.31398 12.9504 7.74469C12.4632 7.09816 11.5554 6.25799 10.8496 5.80037L10.2622 5.41951L10.2581 3.149L10.2541 0.878496H10.9608H11.6675L11.6199 1.15682ZM16.9923 3.93211V6.98572L16.6554 6.94635C14.5814 6.70395 12.9201 5.24033 12.5071 3.29174C12.3746 2.66654 12.4189 1.17979 12.5776 0.922441C12.5925 0.898301 13.5919 0.878496 14.7985 0.878496H16.9923V3.93211ZM22.0648 1.38182C22.578 1.72242 23.1129 2.34738 23.4102 2.95336C23.7142 3.57334 23.8323 3.99697 23.8841 4.65352C23.9124 5.01229 23.9504 5.15836 24.0414 5.25838C24.2046 5.43791 24.4583 5.42959 24.6495 5.2384C24.7967 5.09121 24.8001 5.07111 24.7625 4.57922C24.7216 4.04455 24.5872 3.4575 24.3877 2.94223L24.2679 2.63291L24.4534 2.74465C24.5554 2.80611 25.2453 3.20525 25.9865 3.63158C26.7277 4.05797 27.3534 4.42453 27.377 4.44627C27.4089 4.47562 23.9364 10.5846 23.8124 10.717C23.7687 10.7637 23.541 10.5144 23.4314 10.2998C23.2921 10.0268 23.2844 9.45996 23.414 9.01904C23.4655 8.84396 23.6896 8.33889 23.9121 7.89656C24.3607 7.00459 24.3988 6.81105 24.1622 6.62496C23.8015 6.34119 23.6568 6.47068 23.0981 7.57729C22.562 8.63918 22.4416 9.0317 22.4416 9.71777C22.4416 10.3775 22.5956 10.7684 23.0242 11.1971L23.3534 11.5263L22.7831 12.5149C22.4694 13.0587 22.184 13.5132 22.149 13.5248C22.0622 13.5538 21.7063 13.1683 21.44 12.7568C21.1114 12.2493 20.9696 11.7843 20.9358 11.1031C20.9074 10.5313 20.9131 10.4971 21.1737 9.6883C21.5863 8.40762 21.699 7.79174 21.6975 6.82576C21.6965 6.17672 21.6702 5.9076 21.5712 5.5367C21.4073 4.92252 21.0552 4.21482 20.6569 3.69932L20.3361 3.28418L20.9634 2.19762C21.3853 1.46695 21.6164 1.12096 21.6692 1.14123C21.7124 1.15775 21.8904 1.26604 22.0648 1.38182ZM13.6664 1.90664C13.4705 2.04387 13.3369 2.57502 13.3806 3.04307C13.4484 3.76922 13.8331 4.33195 14.471 4.63775C14.8056 4.79818 15.556 4.81541 15.8936 4.67033C16.2675 4.50967 16.3366 4.09453 16.0236 3.88939C15.8968 3.80637 15.8297 3.80262 15.528 3.86203C15.0858 3.94898 14.7875 3.87609 14.5369 3.61969C14.2425 3.31863 14.1953 3.01506 14.332 2.30285C14.361 2.15215 14.3389 2.08687 14.2179 1.96594C14.0473 1.79531 13.8548 1.77463 13.6664 1.90664ZM20.096 4.40877C21.2465 5.9652 21.0602 8.18607 19.5097 11.3961C19.116 12.211 18.2889 13.6378 18.0149 13.9742L17.8718 14.15L17.8715 12.0846C17.8713 10.1179 17.8764 10.0191 17.9791 10.0191C18.0384 10.0191 18.2479 9.93867 18.4447 9.84035C19.1066 9.50959 19.5816 8.82598 19.6704 8.07645C19.6988 7.83662 19.6839 7.78348 19.5514 7.651C19.2515 7.35111 18.893 7.51576 18.8036 7.9943C18.7268 8.40533 18.4923 8.76891 18.1737 8.97111L17.9006 9.14443L17.8843 8.35002L17.8679 7.5556L18.8488 5.85768C19.3884 4.92381 19.8483 4.15975 19.8708 4.15975C19.8934 4.15975 19.9948 4.27178 20.096 4.40877ZM1.38004 4.5757C2.6578 5.20477 3.50547 6.54551 3.92237 8.59688C4.18258 9.87721 4.24452 10.5709 4.24294 12.1871C4.24182 13.3395 4.21504 13.9287 4.13905 14.4722C3.99122 15.53 4.04834 15.4307 3.41583 15.7303C3.10973 15.8753 2.69711 16.1096 2.49883 16.2512C2.06571 16.5602 1.38989 17.2595 1.11637 17.6816C1.00721 17.8501 0.909185 17.9879 0.898521 17.9879C0.887798 17.9879 0.879067 17.5949 0.879067 17.1145V16.2413L1.21493 16.0517C2.46608 15.3456 3.15766 13.9414 3.26254 11.8941C3.3577 10.0376 2.70725 8.17887 1.31653 6.33264L0.879067 5.75191V5.07299C0.879067 4.6084 0.899927 4.39412 0.945103 4.39412C0.981431 4.39412 1.17719 4.47586 1.38004 4.5757ZM11.2182 10.2216C11.0366 10.4031 11.0372 10.5405 11.2209 10.8856C11.3836 11.1913 11.4074 11.5083 11.2981 11.9167C11.2389 12.1385 11.2431 12.1969 11.3282 12.3268C11.3828 12.41 11.4978 12.4959 11.5837 12.5174C11.9742 12.6154 12.2376 12.1791 12.243 11.4254C12.2457 11.0582 12.2182 10.9269 12.0765 10.6273C11.8169 10.0785 11.5075 9.93223 11.2182 10.2216ZM16.9782 22.1514L16.9631 25.6613L16.5447 25.4531C15.6943 25.03 15.0592 24.3749 14.6185 23.4664C13.9846 22.1592 13.6657 20.5182 13.611 18.2808C13.5768 16.8821 13.6263 16.1147 13.8358 14.7922L13.9568 14.028L14.3802 13.8376C14.613 13.7328 14.973 13.5377 15.1801 13.4041C15.6413 13.1065 16.4892 12.2695 16.7618 11.8428L16.9631 11.5278L16.9782 15.0846C16.9865 17.0409 16.9865 20.2209 16.9782 22.1514ZM20.5379 12.9424C20.7685 13.3812 21.3017 14.0622 21.5337 14.2142C21.6141 14.2669 21.6798 14.3349 21.6798 14.3654C21.6798 14.4096 20.6216 16.2746 19.9875 17.348L19.8636 17.5578L19.5112 17.3831C19.1133 17.1859 18.471 17.1097 18.0909 17.2147L17.8713 17.2753L17.8718 16.445L17.8724 15.6148L18.4018 14.9117C18.9447 14.1908 19.6126 13.1524 19.8944 12.591C20.1391 12.1038 20.1681 12.0826 20.2533 12.3287C20.2936 12.4449 20.4217 12.7211 20.5379 12.9424ZM5.7509 16.3204C5.4096 16.7542 5.24436 18.5679 5.47124 19.39C5.59985 19.8559 5.82274 20.305 5.94948 20.3536C6.16329 20.4356 6.37897 20.3895 6.49979 20.2358C6.64112 20.0562 6.65032 19.9492 6.54239 19.7425C6.15514 19.0004 6.1327 18.2566 6.45356 16.803C6.52469 16.4807 6.52223 16.462 6.3884 16.3196C6.19885 16.1178 5.90999 16.1181 5.7509 16.3204ZM15.2072 16.838C15.0472 16.998 14.8521 17.5835 14.7575 18.1873C14.6616 18.7996 14.7278 19.7287 14.9124 20.3604C15.2035 21.3563 15.4978 21.7073 15.8676 21.4997C16.1425 21.3455 16.1526 21.1774 15.9221 20.5918C15.8087 20.3037 15.6831 19.8865 15.6429 19.6647C15.5385 19.0879 15.5984 18.2458 15.7853 17.6656C15.9722 17.0851 15.9728 17.0216 15.7938 16.8427C15.612 16.6608 15.3862 16.659 15.2072 16.838ZM19.175 18.1887C19.2958 18.2467 19.3947 18.3138 19.3947 18.3377C19.3947 18.3616 19.0831 18.9189 18.7024 19.5761C18.3217 20.2334 17.9797 20.8238 17.9425 20.8883C17.8899 20.9793 17.8744 20.6967 17.873 19.6201L17.8713 18.2348L18.091 18.1404C18.3668 18.022 18.8751 18.0446 19.175 18.1887ZM2.54635 21.8231C2.37584 21.9936 2.36325 22.2168 2.49034 22.8167C2.68727 23.7463 3.11471 24.3272 4.05057 24.9373C4.90083 25.4915 5.09782 25.7989 5.09782 26.5712C5.09782 26.8416 5.12319 26.9248 5.24167 27.0432C5.42747 27.2291 5.64965 27.2265 5.83985 27.0363C5.9844 26.8918 5.98938 26.8644 5.96026 26.3771C5.922 25.7371 5.85678 25.5263 5.55924 25.0807C5.36026 24.7827 5.21131 24.6515 4.66071 24.2895C4.29778 24.0508 3.90502 23.7437 3.78807 23.607C3.52434 23.2989 3.35629 22.8611 3.30333 22.3441C3.27262 22.0446 3.23002 21.9156 3.12825 21.8138C2.9537 21.6392 2.72659 21.6428 2.54635 21.8231ZM10.7305 22.0076C10.904 22.095 11.1529 22.372 11.2819 22.6215C11.439 22.9253 11.5366 23.5139 11.5968 24.5211C11.6689 25.7266 11.7994 26.2969 12.1867 27.0992C12.5008 27.7499 12.9478 28.3226 13.5213 28.8094L13.8882 29.1207H12.0711H10.2541V25.4868V21.8528L10.4152 21.8914C10.5038 21.9127 10.6457 21.965 10.7305 22.0076ZM1.42516 26.0442C1.91084 26.1707 2.20528 26.338 2.59264 26.7075C3.09268 27.1845 3.40006 27.9112 3.39778 28.6109C3.39602 29.1572 3.48895 29.1207 2.10268 29.1207H0.879067V27.5387C0.879067 25.7388 0.824575 25.8878 1.42516 26.0442Z" fill="black"/>
</svg>
