<svg width="27" height="30" viewBox="0 0 27 30" fill="none" xmlns="http://www.w3.org/2000/svg">
<path fill-rule="evenodd" clip-rule="evenodd" d="M13.788 0.0687247C13.555 0.181049 13.5331 0.445658 13.5513 2.92622L13.5685 5.26746L13.7019 5.40081L13.8353 5.53423L17.2029 5.5507L20.5704 5.56722V11.2387V16.9103L20.706 17.0377C20.8409 17.1644 20.8555 17.1651 23.3427 17.1651C25.7658 17.1651 25.8475 17.1615 25.961 17.0479C26.0771 16.9318 26.0782 16.8526 26.0782 8.58538V0.239994L25.9238 0.118588C25.7699 -0.00252531 25.7529 -0.00287688 19.8447 0.0011075C15.7084 0.0038614 13.8802 0.024252 13.788 0.0687247ZM25.1993 2.75103V4.62603H19.838H14.4767V2.75103V0.876029H19.838H25.1993V2.75103ZM25.1993 10.9249V16.2862H23.3243H21.4493V10.9249V5.56353H23.3243H25.1993V10.9249ZM0.256845 8.20066C0.186474 8.22902 0.100752 8.30472 0.0664156 8.36888C-0.0245805 8.53892 -0.0208889 23.3159 0.0702243 23.5158C0.205634 23.8131 0.670341 23.8395 0.820752 23.5585C0.861826 23.4817 0.88292 22.5769 0.88292 20.8897V18.337H2.78722H4.69151V23.7276V29.1182H2.78722H0.88292V27.019V24.9199L0.747334 24.7925C0.566631 24.6228 0.326689 24.6301 0.145927 24.8108L0.000263382 24.9565L0.0167867 27.3649L0.0333102 29.7732L0.17165 29.8851C0.306884 29.9946 0.595107 29.9971 13.0397 29.9971H25.7694L25.9238 29.8757L26.0782 29.7543V27.2644C26.0782 25.6973 26.0563 24.7335 26.0189 24.6638C25.9123 24.4646 25.5803 24.4314 23.6905 24.4311L21.8595 24.4307V22.2601V20.0894L21.7156 19.9457L21.5718 19.8018H18.2307H14.8895L14.8735 16.3397L14.8575 12.8776L14.6931 12.7362C14.4917 12.563 14.3633 12.5581 14.1623 12.7162L14.0079 12.8377V16.3198V19.8018H12.1036H10.1993V14.4112V9.02056H12.1036H14.0079V10.2487C14.0079 11.4367 14.0121 11.4809 14.1362 11.5964C14.4032 11.8452 14.785 11.6853 14.8578 11.2943C14.8776 11.1878 14.8857 10.4985 14.8757 9.76248L14.8575 8.42425L14.6931 8.28298L14.5287 8.14165L7.45679 8.14535C3.52983 8.14746 0.32792 8.17201 0.256845 8.20066ZM9.32042 10.9249V12.8292H5.10167H0.88292V10.9249V9.02056H5.10167H9.32042V10.9249ZM4.69151 15.5831V17.4581H2.78722H0.88292V15.5831V13.7081H2.78722H4.69151V15.5831ZM9.32042 19.0694V24.4307H7.44542H5.57042V19.0694V13.7081H7.44542H9.32042V19.0694ZM20.9806 22.5557V24.4307H15.59H10.1993V22.5557V20.6807H15.59H20.9806V22.5557ZM16.2931 27.2432V29.1182H10.9317H5.57042V27.2432V25.3682H10.9317H16.2931V27.2432ZM25.1993 27.2432V29.1182H21.1857H17.172V27.2432V25.3682H21.1857H25.1993V27.2432Z" fill="black"/>
</svg>
