<svg width="28" height="28" viewBox="0 0 28 28" fill="none" xmlns="http://www.w3.org/2000/svg">
<path fill-rule="evenodd" clip-rule="evenodd" d="M0.943685 0.201052C0.722987 0.309403 0.420367 0.568351 0.271196 0.776531L0 1.15515V13.9991V26.843L0.272664 27.2237C0.861764 28.0459 0.0410833 27.9995 14 27.9995C27.9589 27.9995 27.1382 28.0459 27.7273 27.2237L28 26.843V13.9991V1.15515L27.7273 0.774462C27.138 -0.0480351 27.9619 -0.00165082 13.9815 0.00139276C2.59141 0.00382763 1.30536 0.02355 0.943685 0.201052ZM4.70657 4.68656L1.22271 8.15721L1.19006 4.91154C1.16108 2.02038 1.17979 1.64115 1.36185 1.44088C1.551 1.23283 1.81291 1.21602 4.87836 1.21602H8.19055L4.70657 4.68656ZM15.0089 3.31512L12.9007 5.41409L11.1297 3.65393L9.35872 1.89377L9.68482 1.55484L10.0108 1.21602H13.5639H17.117L15.0089 3.31512ZM21.6126 2.6476L23.0467 4.0793L16.8411 10.2572L10.6355 16.435L8.86695 14.671L7.09843 12.9069L12.9628 7.06152L18.827 1.21602H19.5028H20.1785L21.6126 2.6476ZM25.8603 1.24926C25.8603 1.26764 25.4326 1.70592 24.9099 2.22333L23.9594 3.16404L22.987 2.19009L22.0145 1.21602H23.9373C24.995 1.21602 25.8603 1.231 25.8603 1.24926ZM24.3655 11.6525C23.0033 13.01 21.8324 14.1208 21.7637 14.1208C21.6949 14.1208 20.8695 13.3536 19.9296 12.4159L18.2207 10.711L22.4989 6.44976L26.7773 2.18851L26.8098 5.68631L26.8422 9.18424L24.3655 11.6525ZM6.57169 11.7164L1.16157 17.1031V13.5736V10.0439L4.79852 6.42115L8.43546 2.79844L10.2086 4.56396L11.9818 6.3296L6.57169 11.7164ZM23.2036 21.5749C21.2022 23.5684 19.5358 25.1994 19.5002 25.1994C19.4648 25.1994 18.6717 24.4002 17.7378 23.4234L16.04 21.6475L21.4086 16.3009L26.7773 10.9543L26.8098 14.4523L26.8422 17.9504L23.2036 21.5749ZM15.0393 20.9384L9.17128 26.7821H8.50014H7.829L6.38975 25.3528L4.9505 23.9234L11.156 17.7439L17.3615 11.5643L19.1344 13.3295L20.9073 15.0947L15.0393 20.9384ZM5.47125 21.5774L1.16157 25.8685V22.3393V18.81L3.69783 16.2825L6.23422 13.755L8.00751 15.5207L9.78093 17.2864L5.47125 21.5774ZM26.6381 26.5572C26.449 26.7653 26.1871 26.7821 23.1216 26.7821H19.8095L23.2934 23.3116L26.7773 19.8409L26.8099 23.0866C26.8389 25.9777 26.8202 26.357 26.6381 26.5572ZM16.8999 24.3736L18.6413 26.1043L18.3152 26.4433L17.9892 26.7821H14.437H10.8848L12.9607 24.7125C14.1025 23.5742 15.064 22.6428 15.0975 22.6428C15.1311 22.6428 15.9421 23.4216 16.8999 24.3736ZM5.04709 25.728C5.53275 26.2196 5.93013 26.6579 5.93013 26.702C5.93013 26.7461 5.06482 26.7821 4.00718 26.7821H2.08435L3.05677 25.8081C3.59158 25.2725 4.05951 24.8342 4.09668 24.8342C4.13373 24.8342 4.56155 25.2364 5.04709 25.728Z" fill="black"/>
</svg>
