<svg width="31" height="24" viewBox="0 0 31 24" fill="none" xmlns="http://www.w3.org/2000/svg">
<path fill-rule="evenodd" clip-rule="evenodd" d="M13.4141 0.454826C7.86964 3.5616 0.268746 7.87307 0.150268 7.97852L0 8.11225L0.00100175 11.5927C0.00160282 13.5069 0.0257125 15.11 0.0545639 15.1551C0.0949693 15.2181 14.2401 23.3528 15.2841 23.9135C15.4073 23.9796 15.5575 24.0156 15.6181 23.9935C15.9286 23.8801 24.8334 18.7117 24.9644 18.5688C25.102 18.4186 25.1082 18.3868 25.0235 18.2599C24.9716 18.182 24.8657 18.1089 24.7882 18.0974C24.6983 18.084 23.063 18.9894 20.2653 20.6016C17.8552 21.9905 15.8771 23.117 15.8694 23.105C15.8618 23.093 15.8678 22.115 15.883 20.9317L15.9104 18.7803L17.8896 17.6442C19.7871 16.555 27.282 12.2375 29.3357 11.0505L30.3207 10.4812V12.6474V14.8136L29.2852 15.4054C28.7156 15.7309 28.2332 16.0488 28.2129 16.1119C28.167 16.2552 28.277 16.4669 28.427 16.524C28.5639 16.5761 30.7402 15.362 30.8902 15.1498C31.0347 14.9454 31.0375 9.86824 30.8932 9.72518C30.8407 9.67322 29.0712 8.64263 26.9609 7.43503C23.5817 5.50136 23.1196 5.21797 23.087 5.05896C23.0573 4.91378 22.9219 4.80535 22.3944 4.50428C18.1342 2.07259 14.5648 0.05333 14.4492 0.0095064C14.3362 -0.0333905 14.1169 0.0610095 13.4141 0.454826ZM18.2642 2.89253C21.618 4.79893 22.0927 5.08782 21.9918 5.1613C21.9282 5.20764 21.4505 5.48435 20.9302 5.77622L19.9842 6.30687L16.1081 4.10318C13.9763 2.89121 12.2551 1.87598 12.2832 1.84712C12.3741 1.75391 14.324 0.676791 14.3732 0.692612C14.3994 0.701086 16.1503 1.69102 18.2642 2.89253ZM13.1591 3.16276C14.0336 3.65726 14.8004 4.09901 14.863 4.14442C14.962 4.21618 14.8381 4.30436 13.9125 4.82143L12.8482 5.41597L11.1287 4.44185C9.9591 3.7792 9.43696 3.4498 9.49594 3.4118C9.77891 3.22949 11.4635 2.27496 11.5115 2.26987C11.5432 2.26642 12.2846 2.66825 13.1591 3.16276ZM12.5935 6.01176C14.6848 7.19943 16.4212 8.19407 16.4521 8.2222C16.5052 8.27053 14.5337 9.42967 14.3923 9.43311C14.3556 9.43404 13.1835 8.78516 11.7877 7.99123C10.3919 7.19725 8.75395 6.2655 8.14787 5.92067C7.54178 5.57584 6.94652 5.23399 6.82504 5.1611L6.60418 5.02851L7.62647 4.4443C8.18874 4.12297 8.68075 3.85837 8.71989 3.85626C8.75902 3.85414 10.5021 4.82415 12.5935 6.01176ZM15.247 5.77754C15.2177 5.80575 15.0104 5.93113 14.7862 6.05618L14.3787 6.2835L13.9681 6.05492C13.7423 5.92921 13.5587 5.80667 13.5602 5.78271C13.5617 5.75868 13.9448 5.52771 14.4117 5.2694L15.2606 4.79966L15.2804 5.26298C15.2913 5.51778 15.2762 5.74934 15.247 5.77754ZM17.9487 5.88664L19.635 6.84163V7.30541C19.635 7.62615 19.6112 7.76133 19.558 7.74372C19.5157 7.72975 18.6903 7.24319 17.7239 6.66249L15.9669 5.60669L15.9643 5.19063C15.9618 4.77973 15.9637 4.77549 16.1121 4.85308C16.1948 4.89631 17.0212 5.36142 17.9487 5.88664ZM7.70848 6.40107C8.60849 6.9108 9.346 7.34441 9.3474 7.36466C9.35301 7.44456 7.27451 8.56478 7.18441 8.53049C7.09873 8.49786 5.48866 7.59312 4.25152 6.88234L3.79457 6.61986L4.8192 6.03301C5.38267 5.71029 5.89511 5.45251 5.95796 5.46025C6.02074 5.46793 6.80848 5.89134 7.70848 6.40107ZM22.4383 6.18593L22.4366 6.66587L21.4316 7.22856C20.879 7.53804 20.3988 7.80118 20.3648 7.81329C20.3303 7.8256 20.303 7.62006 20.3031 7.3499L20.3034 6.86446L21.3216 6.28867C21.8816 5.97191 22.3624 5.71128 22.3899 5.70943C22.4175 5.70751 22.4392 5.92192 22.4383 6.18593ZM26.8676 8.11926C28.5828 9.10066 29.9638 9.92437 29.9364 9.94973C29.8447 10.0347 15.6081 18.2176 15.5519 18.2176C15.5103 18.2176 9.51517 14.816 9.43463 14.7467C9.42601 14.7393 9.89184 14.4701 10.4698 14.1484C11.0477 13.8267 11.6032 13.5064 11.7042 13.4366L11.8879 13.3099L11.8869 12.3048C11.8863 11.7521 11.8638 11.2677 11.8368 11.2284C11.8098 11.1891 11.2693 10.862 10.6356 10.5015C10.002 10.141 9.48365 9.8305 9.48372 9.81164C9.48385 9.7927 9.6454 9.69354 9.84282 9.59133L10.2017 9.40544L12.2373 10.634C13.3568 11.3097 14.3257 11.8625 14.3902 11.8625C14.5097 11.8625 17.168 10.4035 17.381 10.2209C17.4828 10.1337 17.4979 9.99018 17.4979 9.10589V8.091L17.2474 7.93139C17.1097 7.84355 16.5612 7.52639 16.0286 7.22651C15.496 6.92662 15.0513 6.67401 15.0404 6.66507C15.0296 6.65614 15.1894 6.55446 15.3956 6.43907L15.7705 6.22935L17.8186 7.46542C18.945 8.14528 19.9272 8.70095 20.0013 8.70029C20.1335 8.69917 22.7621 7.24358 22.991 7.04479C23.0824 6.96535 23.1079 6.83719 23.1079 6.45569V5.96813L23.4284 6.1515C23.6047 6.25232 25.1523 7.13787 26.8676 8.11926ZM7.07582 9.21452C9.16882 10.3978 10.8823 11.3847 10.8837 11.4076C10.8867 11.4589 8.89119 12.5907 8.79762 12.5907C8.76049 12.5907 6.98866 11.6028 4.86034 10.3953C1.94974 8.74411 1.01675 8.1854 1.09615 8.14137C1.15426 8.10913 1.61508 7.84639 2.12025 7.55743C2.62542 7.26848 3.09091 7.0391 3.15463 7.04757C3.21834 7.05611 4.98289 8.03122 7.07582 9.21452ZM9.75072 8.43722V8.91775L9.26259 9.17686L8.77445 9.43596L8.36098 9.21068C8.13357 9.08676 7.94831 8.96992 7.94931 8.95099C7.95145 8.91094 9.62624 7.96224 9.70063 7.959C9.72815 7.95774 9.75072 8.17295 9.75072 8.43722ZM12.2644 8.99825L14.0918 10.0398V10.4877C14.0918 10.7341 14.0651 10.9357 14.0324 10.9357C13.9997 10.9357 13.1657 10.447 12.1791 9.84977L10.3852 8.76378L10.3653 8.36029C10.3544 8.13833 10.366 7.95675 10.3912 7.95675C10.4164 7.95675 11.2593 8.42543 12.2644 8.99825ZM4.84197 11.1226L8.4484 13.1704L8.4679 13.6735L8.48734 14.1767L4.59433 11.9654L0.701251 9.75418L0.681683 9.24815L0.662047 8.7422L0.948826 8.90849C1.10651 8.99997 2.85843 9.99633 4.84197 11.1226ZM16.8968 9.30098V9.78463L15.8449 10.3719C15.2664 10.6949 14.7705 10.9706 14.743 10.9844C14.7154 10.9983 14.6929 10.7879 14.6929 10.5169V10.0239L15.7447 9.42768C16.3233 9.09974 16.8191 8.82819 16.8467 8.82435C16.8743 8.82051 16.8968 9.03499 16.8968 9.30098ZM8.04769 14.6921L15.1938 18.7862L15.2114 20.9513C15.2211 22.142 15.2168 23.1163 15.2019 23.1163C15.187 23.1163 12.7748 21.743 9.84142 20.0645C6.90805 18.386 3.64403 16.5186 2.58795 15.9148L0.667858 14.8168V12.6422C0.667858 10.5905 0.67447 10.4713 0.784733 10.5328C0.848981 10.5687 4.11734 12.4403 8.04769 14.6921ZM11.2851 12.4748L11.2833 12.9548L10.2789 13.5174C9.72635 13.8269 9.23126 14.0897 9.17857 14.1015C9.10257 14.1185 9.08287 14.0278 9.08287 13.6602V13.1974L10.1347 12.6005C10.7132 12.2721 11.2092 12.0016 11.2367 11.9992C11.2642 11.9968 11.286 12.2108 11.2851 12.4748ZM26.514 16.9997C25.7301 17.4552 25.6835 17.4982 25.7383 17.7145C25.8176 18.0278 26.0488 18.0057 26.7323 17.6191C27.0714 17.4274 27.4014 17.2257 27.4657 17.171C27.6901 16.9802 27.5726 16.6276 27.2853 16.6299C27.2101 16.6304 26.8629 16.7969 26.514 16.9997Z" fill="black"/>
</svg>
