<svg width="28" height="29" viewBox="0 0 28 29" fill="none" xmlns="http://www.w3.org/2000/svg">
<path fill-rule="evenodd" clip-rule="evenodd" d="M0.206724 0.132269C0.0118128 0.246552 0 1.01467 0 13.6025C0 23.8264 0.0331941 26.9849 0.141754 27.0942C0.239209 27.1923 0.828314 27.2369 2.0266 27.2369H3.7697L3.80443 28.099L3.83916 28.9612L6.8369 28.993C8.94926 29.0155 9.88247 28.9848 9.99682 28.8893C10.2334 28.6915 10.2398 2.2411 10.0033 2.04346C9.91094 1.96628 9.15386 1.89992 8.1428 1.8803L6.43798 1.84712L6.40219 1.07865C6.38246 0.655999 6.30946 0.241319 6.24 0.157004C6.08088 -0.0361246 0.532639 -0.0588382 0.206724 0.132269ZM5.52957 1.40116L5.49295 1.84712L4.66606 1.90658L3.83916 1.96604L3.7801 14.1258C3.74761 20.8137 3.68111 26.2855 3.63244 26.2855C3.58377 26.2855 2.95911 26.2855 2.24443 26.2855H0.945024V13.6203V0.955206H3.25561H5.56631L5.52957 1.40116ZM14.0248 4.49823C12.2884 6.25066 10.8678 7.76513 10.8678 7.86371C10.8678 8.09502 11.1012 8.32834 11.3327 8.32834C11.4326 8.32834 12.1929 7.64656 13.0226 6.81316L14.5309 5.2981L16.1539 6.93196L17.777 8.56595L14.4995 11.867C12.697 13.6824 11.2222 15.2593 11.2222 15.371C11.2222 15.5507 11.5435 15.8204 11.7574 15.8204C11.8005 15.8204 12.2046 15.4618 12.6555 15.0236L13.4753 14.2268L15.1842 15.9441L16.8929 17.6612L14.1757 20.3985C12.6812 21.9041 11.4584 23.2185 11.4584 23.3193C11.4584 23.5539 11.6901 23.7881 11.922 23.7881C12.0209 23.7881 14.443 21.4335 17.3043 18.5557L22.5067 13.3233L24.2163 15.0474L25.9259 16.7716L20.3459 22.3937C17.2769 25.4857 14.766 28.0774 14.766 28.1529C14.766 28.3293 15.097 28.6639 15.2714 28.6639C15.3451 28.6639 16.8035 27.2602 18.5122 25.5445L21.6189 22.4251L23.3303 24.1449L25.0417 25.8647L24.2642 26.6534C23.6685 27.2579 23.4961 27.5085 23.5267 27.726C23.554 27.9203 23.656 28.0226 23.8501 28.0502C24.0812 28.0831 24.4897 27.7324 26.065 26.1488C28.0925 24.1104 28.3186 23.7552 27.6899 23.5963C27.4243 23.5292 27.2679 23.6346 26.5122 24.3904C26.0328 24.8696 25.6259 25.2361 25.6077 25.2046C25.5896 25.1732 24.8311 24.3866 23.9222 23.4566L22.2696 21.7658L25.1436 18.8707C27.5186 16.4782 28.0105 15.9261 27.9774 15.6899C27.9151 15.2459 27.4228 15.2491 26.9972 15.6962C26.8077 15.8953 26.6033 16.0582 26.5428 16.0582C26.4823 16.0582 25.6829 15.3095 24.7663 14.3943L23.0997 12.7305L25.489 10.3147C26.803 8.98598 27.8782 7.83874 27.8782 7.76537C27.8782 7.59115 27.5452 7.25805 27.3711 7.25805C27.2963 7.25805 25.0527 9.45274 22.3854 12.1351L17.5356 17.0122L15.8223 15.2874L14.109 13.5626L19.7546 7.88357C22.8596 4.7601 25.4305 2.10827 25.4677 1.99042C25.5485 1.73402 25.3262 1.43089 25.0574 1.43089C24.9512 1.43089 23.4298 2.87579 21.6765 4.64177C19.9232 6.40776 18.4352 7.85206 18.3697 7.85147C18.2195 7.84992 15.2385 4.83942 15.2385 4.68922C15.2385 4.6281 15.8002 4.01708 16.4868 3.3315C17.1733 2.64591 17.7844 1.99517 17.8449 1.88541C18.0126 1.58049 17.8499 1.31197 17.4969 1.31197C17.2419 1.31197 16.5796 1.91966 14.0248 4.49823ZM9.21399 15.4636V28.1882H6.91049H4.60699V15.4636V2.73903H6.91049H9.21399V15.4636Z" fill="black"/>
</svg>
