<svg width="29" height="29" viewBox="0 0 29 29" fill="none" xmlns="http://www.w3.org/2000/svg">
<path fill-rule="evenodd" clip-rule="evenodd" d="M9.48376 0.125514L9.32422 0.250967V1.18393V2.1169L4.77781 2.13313L0.231471 2.14941L0.115705 2.29237C0.00266402 2.43199 0 2.71056 0 14.4102C0 26.1103 0.0026641 26.3883 0.115766 26.5279L0.231471 26.6709H5.08594H9.9404L10.0561 26.5279C10.1585 26.4015 10.1719 26.2809 10.1719 25.4835V24.582H14.4102H18.6484V26.5525V28.5231L18.7971 28.6717L18.9457 28.8203H23.7344H28.5231L28.6722 28.6712L28.8212 28.5222L28.8056 16.5035C28.7908 5.05881 28.7849 4.47962 28.682 4.37669C28.5804 4.27509 28.299 4.26759 24.035 4.25227L19.4961 4.23604V2.2435V0.250967L19.3366 0.125514C19.1782 0.000968752 19.141 0 14.4102 0C9.67933 0 9.64209 0.000968752 9.48376 0.125514ZM12.3648 3.36574L12.3818 5.88382L12.5248 5.99953C12.7085 6.14823 12.8414 6.14569 13.0397 5.98972L13.1992 5.86427V3.35593V0.847656H14.4102H15.6211V5.47949C15.6211 10.0306 15.6232 10.1134 15.7422 10.2324C15.8948 10.3851 16.111 10.3872 16.2955 10.2378L16.4385 10.122L16.4547 5.48488L16.471 0.847656H17.5597H18.6484V12.2916V23.7356L15.939 23.7198L13.2295 23.7041L13.1992 19.1733C13.1699 14.7766 13.1655 14.64 13.0514 14.5566C12.8893 14.4381 12.6944 14.4491 12.5248 14.5864L12.3818 14.7022L12.3655 19.2182L12.3493 23.7344H11.2606H10.1719V12.291V0.847656H11.2598H12.3477L12.3648 3.36574ZM3.20898 4.4155V5.86427L3.36853 5.98972C3.57802 6.15453 3.72648 6.14817 3.908 5.96659L4.05664 5.81801V4.39237V2.9668H5.14648H6.23633V9.26367C6.23633 15.4798 6.2379 15.5621 6.35742 15.6816C6.42469 15.7489 6.55922 15.8027 6.66016 15.8027C6.76109 15.8027 6.89562 15.7489 6.96289 15.6816C7.08241 15.5621 7.08398 15.4798 7.08398 9.26367V2.9668H8.2041H9.32422V14.4102V25.8535H6.69043H4.05664V23.912C4.05664 21.6701 4.04617 21.6183 3.59085 21.6161C3.21577 21.6144 3.20898 21.6544 3.20898 23.869V25.8535H2.02832H0.847656V14.4102V2.9668H2.02832H3.20898V4.4155ZM24.8848 7.84354V10.6012L25.0334 10.7498C25.222 10.9384 25.3952 10.9384 25.5838 10.7498L25.7324 10.6012V7.84221V5.08321L26.8374 5.09968L27.9424 5.11621L27.9577 16.5444L27.973 27.9727H25.339H22.7051V26.0312C22.7051 23.7892 22.6946 23.7375 22.2393 23.7353C21.8642 23.7335 21.8574 23.7735 21.8574 25.9881V27.9727H20.6768H19.4961V16.5697C19.4961 10.298 19.5143 5.14848 19.5365 5.12632C19.5586 5.1041 20.7711 5.08594 22.2308 5.08594H24.8848V7.84354ZM22.017 7.33059L21.8574 7.45605V12.0835C21.8574 16.6302 21.8595 16.7131 21.9785 16.832C22.1422 16.9957 22.3764 16.9845 22.5564 16.8045L22.7051 16.6559V12.0791V7.5023L22.5564 7.35372C22.3749 7.17214 22.2265 7.16578 22.017 7.33059ZM12.4771 8.33337C12.3605 8.48159 12.3516 8.57162 12.3516 9.60201C12.3516 10.7802 12.3857 10.9605 12.63 11.0718C12.7867 11.1432 12.9284 11.1123 13.0933 10.9707C13.1878 10.8895 13.1992 10.745 13.1992 9.62695C13.1992 8.49025 13.189 8.36497 13.0885 8.27403C12.9159 8.11782 12.6244 8.1461 12.4771 8.33337ZM3.30919 8.89004C3.21782 8.99097 3.20898 9.39778 3.20898 13.4916C3.20898 17.9017 3.21116 17.9846 3.33008 18.1035C3.50433 18.2778 3.77764 18.2603 3.93113 18.0651C4.05549 17.907 4.05664 17.8651 4.05664 13.5201C4.05664 9.12181 4.0495 8.95827 3.85078 8.82561C3.7246 8.74133 3.40988 8.77875 3.30919 8.89004ZM15.7213 12.099C15.6318 12.1978 15.6211 12.4511 15.6211 14.4604C15.6211 16.6302 15.6255 16.7153 15.7422 16.832C15.8948 16.9847 16.111 16.9868 16.2955 16.8374L16.4385 16.7217L16.4557 14.5173C16.4727 12.3537 16.4706 12.3097 16.3454 12.1505C16.1911 11.9544 15.8757 11.9284 15.7213 12.099ZM25.0059 13.5625C24.8864 13.682 24.8848 13.7643 24.8848 19.7013C24.8848 25.4593 24.8896 25.725 24.9964 25.8569C25.0719 25.9501 25.173 25.9948 25.3086 25.9948C25.4442 25.9948 25.5453 25.9501 25.6208 25.8569C25.7276 25.725 25.7324 25.4593 25.7324 19.7013C25.7324 13.7643 25.7308 13.682 25.6113 13.5625C25.5441 13.4952 25.4095 13.4414 25.3086 13.4414C25.2077 13.4414 25.0731 13.4952 25.0059 13.5625ZM15.7213 19.1225C15.6365 19.2161 15.6211 19.3883 15.6211 20.2426C15.6211 21.1712 15.6308 21.2616 15.7422 21.373C15.8948 21.5256 16.111 21.5278 16.2955 21.3786C16.4333 21.2672 16.4392 21.2277 16.4576 20.3019C16.4756 19.3964 16.4692 19.3314 16.3472 19.1763C16.1912 18.9779 15.8766 18.9509 15.7213 19.1225ZM6.35742 19.4355C6.24444 19.5485 6.23633 19.6374 6.23633 20.7609C6.23633 21.841 6.24783 21.9793 6.34798 22.103C6.42348 22.1962 6.52453 22.2409 6.66016 22.2409C6.79578 22.2409 6.89683 22.1962 6.97234 22.103C7.07248 21.9793 7.08398 21.841 7.08398 20.7609C7.08398 19.6374 7.07587 19.5485 6.96289 19.4355C6.89562 19.3683 6.76109 19.3145 6.66016 19.3145C6.55922 19.3145 6.42469 19.3683 6.35742 19.4355ZM21.9785 20.2832C21.8705 20.3912 21.8574 20.485 21.8574 21.1517C21.8574 21.8239 21.8697 21.9103 21.9793 22.0095C22.1325 22.1482 22.4364 22.1519 22.5718 22.0169C22.6545 21.9343 22.6787 21.7736 22.6947 21.2036C22.7129 20.5516 22.7039 20.4796 22.5843 20.3277C22.4261 20.1264 22.1551 20.1066 21.9785 20.2832Z" fill="black"/>
</svg>
