<svg width="30" height="30" viewBox="0 0 30 30" fill="none" xmlns="http://www.w3.org/2000/svg">
<path fill-rule="evenodd" clip-rule="evenodd" d="M5.80083 0.0842212C5.05675 0.281858 4.95614 0.363186 2.76514 2.53742C1.62731 3.66658 0.609304 4.72233 0.502956 4.88346C0.147937 5.42153 0.0378976 5.80397 0.039421 6.49479C0.0409445 7.17811 0.15028 7.5817 0.466745 8.07207C0.562019 8.21973 1.76893 9.46772 3.14876 10.8454L5.65751 13.3503H6.52018H7.38286V13.8512C7.38286 14.4124 7.46284 14.6355 7.70348 14.7451C7.79829 14.7883 8.15905 14.8151 8.64538 14.8151H9.43364V15.2868C9.43364 16.1571 9.6001 16.2799 10.7794 16.2799H11.543V16.8028C11.543 17.2798 11.5563 17.3414 11.6947 17.5059L11.8464 17.6862H12.7161H13.5858L13.6063 18.2282C13.6176 18.5263 13.6486 18.8163 13.6752 18.8727C13.7211 18.97 13.3874 18.9753 7.09891 18.9753C2.08762 18.9753 0.436921 18.9923 0.320671 19.0453C-0.0112626 19.1965 4.6018e-05 19.0051 4.6018e-05 24.4774C4.6018e-05 28.2596 0.017507 29.5549 0.0700656 29.6703C0.226335 30.0133 -0.819036 29.9909 15 29.9909C30.8191 29.9909 29.7738 30.0133 29.93 29.6703C29.9826 29.5549 30 28.2596 30 24.4774C30 19.0051 30.0114 19.1965 29.6794 19.0453C29.5738 18.9972 29.0824 18.9753 28.1079 18.9753H26.69L24.0688 16.3545C21.4611 13.7473 21.4463 13.7338 21.2061 13.7338C21.0058 13.7338 20.9345 13.7675 20.7882 13.9312C20.6362 14.1013 20.6162 14.1612 20.6435 14.3648C20.6729 14.5839 20.8329 14.7587 22.8617 16.7881L25.0483 18.9753H20.9617H16.875V18.7683C16.875 18.6545 16.8364 18.4689 16.7893 18.356C16.6595 18.0455 16.4378 17.9792 15.5293 17.9792H14.7657V17.4597C14.7657 16.6264 14.6055 16.5152 13.4034 16.5147L12.7149 16.5143V16.0836C12.7149 15.1835 12.6176 15.1081 11.4572 15.1081H10.6055V14.5469C10.6055 14.0048 10.5997 13.98 10.4342 13.8145L10.263 13.6432H9.41448H8.56604L8.54577 13.0817C8.52585 12.5322 8.52133 12.5165 8.33407 12.3493L8.1427 12.1784H7.13184H6.12098L5.50786 11.5631L4.89473 10.9479H6.1518H7.40887L9.81344 8.54592L12.218 6.14387L14.6491 8.58102C15.9862 9.92147 17.1592 11.0527 17.2559 11.0949C17.6324 11.2592 18.0469 10.9726 18.0469 10.548C18.0469 10.3408 17.862 10.1481 13.1104 5.40178C9.15327 1.4491 8.11305 0.44053 7.86737 0.318303C7.23801 0.00523685 6.43891 -0.0852905 5.80083 0.0842212ZM7.30446 1.36274C7.50069 1.46949 8.21366 2.13957 9.49557 3.42196L11.3959 5.32297L9.16997 7.54948L6.94399 9.77604H5.32915H3.71436L2.56915 8.61881C1.28776 7.32401 1.20122 7.18959 1.20122 6.49479C1.20122 5.75698 1.21557 5.7374 3.30456 3.63336C4.33915 2.59133 5.28854 1.65647 5.41434 1.55592C5.94432 1.13217 6.73276 1.05155 7.30446 1.36274ZM4.46887 4.45971L2.69536 6.23328V6.49356C2.69536 6.7499 2.7076 6.76608 3.50331 7.56184L4.31132 8.36979H5.33301H6.35477L7.74772 6.97684L9.14067 5.58389V5.32315V5.0624L7.95257 3.8743L6.76446 2.68619H6.50342H6.24245L4.46887 4.45971ZM7.13301 4.69221L7.73483 5.29192L6.78315 6.24494L5.83147 7.19791H5.30161H4.77175L4.42323 6.84571L4.07471 6.4935L5.27413 5.29297C5.93384 4.63268 6.48655 4.09244 6.50243 4.09244C6.51825 4.09244 6.80208 4.36233 7.13301 4.69221ZM19.1614 11.8937C18.8055 12.0321 18.6661 12.3734 18.8334 12.6969C18.9485 12.9195 19.0881 12.9987 19.3659 12.9987C19.6602 12.9987 19.9219 12.7392 19.9219 12.4475C19.9219 12.0668 19.5022 11.7611 19.1614 11.8937ZM26.9202 20.2295C26.7643 20.3387 25.7314 20.8 25.2613 20.9703C24.8195 21.1304 24.6442 21.3438 24.692 21.6632C24.7286 21.9075 24.8589 22.0573 25.1059 22.1388C25.2673 22.1921 25.3681 22.1747 25.7873 22.0212C26.4107 21.793 27.5184 21.2605 28.2569 20.834L28.8282 20.504V22.5522V24.6003H25.4014H21.9746L21.7846 24.7701C21.6273 24.9106 21.5945 24.9823 21.5945 25.1862C21.5945 25.3901 21.6273 25.4618 21.7846 25.6023L21.9746 25.7721H25.4014H28.8282V27.2956V28.819L22.7784 28.8161L16.7286 28.8131L17.4317 28.561C18.9616 28.0123 20.1559 27.4423 20.2616 27.2102C20.3995 26.9078 20.3006 26.5811 20.0286 26.4405C19.4325 26.1322 17.2696 25.4489 15.9668 25.1572C14.1368 24.7474 11.0224 24.4662 10.5746 24.6703C10.4066 24.7468 10.254 24.9925 10.254 25.1862C10.254 25.3888 10.4134 25.6344 10.5881 25.7006C10.6782 25.7347 11.1813 25.7789 11.7058 25.7986C13.272 25.8575 14.7421 26.0608 16.2305 26.4243C16.9095 26.5902 18.0084 26.9167 18.1278 26.9881C18.241 27.0558 16.3569 27.7279 15.2051 28.0307C13.7481 28.4138 12.4667 28.6321 10.9278 28.7596C10.5411 28.7916 8.18782 28.8181 5.69829 28.8184L1.17192 28.819V27.2956V25.7721H3.86448C6.75643 25.7721 6.79382 25.7685 6.9478 25.4707C7.0535 25.2663 7.0535 25.1061 6.9478 24.9017C6.79382 24.6039 6.75643 24.6003 3.86448 24.6003H1.17192V22.3737V20.1471H14.1049C25.2347 20.1471 27.0214 20.1586 26.9202 20.2295ZM3.93725 21.9336C3.73007 22.1079 3.6744 22.3367 3.77846 22.5857C3.94329 22.9801 3.70487 22.9596 8.12553 22.9596C11.1003 22.9596 12.1628 22.9417 12.2771 22.8896C12.445 22.8131 12.5977 22.5674 12.5977 22.3737C12.5977 22.18 12.445 21.9343 12.2771 21.8578C12.1628 21.8057 11.0984 21.7878 8.11704 21.7878H4.11057L3.93725 21.9336ZM14.7135 21.8696C14.3208 22.0872 14.3337 22.7069 14.7347 22.8896C14.8473 22.9409 15.6715 22.9596 17.8182 22.9596C20.9483 22.9596 20.9979 22.9553 21.1506 22.6699C21.2281 22.5252 21.2281 22.2222 21.1506 22.0775C20.9977 21.7917 20.9505 21.7876 17.8008 21.7898C15.467 21.7914 14.8244 21.8081 14.7135 21.8696Z" fill="black"/>
</svg>
