<svg width="30" height="30" viewBox="0 0 30 30" fill="none" xmlns="http://www.w3.org/2000/svg">
<path fill-rule="evenodd" clip-rule="evenodd" d="M11.6983 0.299407C7.22496 1.24312 3.10994 4.5485 1.21482 8.72051C0.221367 10.9073 0 12.0527 0 15.0066C0 17.8864 0.110766 18.5088 1.018 20.7222C1.78779 22.6004 2.72889 24.0021 4.25392 25.5417C7.44207 28.7602 10.9835 30.157 15.5201 29.9861C18.0419 29.8909 19.2052 29.6186 21.3297 28.6261C24.6878 27.0571 27.045 24.7034 28.6184 21.3483C29.6101 19.2337 29.8766 18.0813 29.9718 15.4965C30.0396 13.6602 29.9967 13.0375 29.7153 11.7692C29.3629 10.1803 28.312 7.74887 27.4154 6.44834C25.2586 3.31966 21.7806 1.05157 17.864 0.219717C16.3449 -0.102803 13.4259 -0.0652438 11.6983 0.299407ZM18.4064 1.31171C20.8861 1.92997 23.7351 3.60903 25.3776 5.42036C26.1521 6.27443 27.4051 8.07776 27.4051 8.33839C27.4051 8.4153 24.4048 8.45907 20.7379 8.43555L14.0707 8.39293L14.0265 4.73025C13.9926 1.91037 14.0303 1.03671 14.1901 0.933015C14.4957 0.735095 16.9929 0.95947 18.4064 1.31171ZM13.0072 4.85126V8.73962L8.35552 12.8938L3.70402 17.0479L3.69257 20.2011C3.68537 22.2263 3.62369 23.3186 3.52012 23.2548C3.14708 23.0247 2.02552 20.8585 1.56332 19.475C-0.342604 13.7719 1.55644 7.49804 6.29908 3.82851C7.37827 2.99355 8.73281 2.21574 9.73625 1.85501C10.4311 1.60516 12.6198 0.99115 12.8845 0.971718C12.9519 0.966819 13.0072 2.71251 13.0072 4.85126ZM28.0538 9.60691C28.1469 9.78066 28.2231 10.0011 28.2231 10.0968C28.2231 10.217 26.2809 10.2709 21.9494 10.2709C16.1772 10.2709 15.6561 10.248 15.4298 9.98512C14.8131 9.26839 14.6175 9.29109 21.4178 9.29109C27.6436 9.29109 27.8907 9.30284 28.0538 9.60691ZM14.2071 10.0798L14.819 10.7053L10.7358 14.5706C8.48985 16.6965 6.61747 18.4359 6.57493 18.4359C6.53222 18.4359 6.26079 18.2155 5.97185 17.946C5.68291 17.6766 5.33769 17.4561 5.20467 17.4561C5.07166 17.4561 4.9874 17.3836 5.0175 17.2951C5.04744 17.2064 6.98625 15.4095 9.32591 13.3016C11.6656 11.1939 13.5833 9.46598 13.5875 9.4619C13.5918 9.45765 13.8706 9.73575 14.2071 10.0798ZM28.7532 11.655C28.7959 11.8776 28.7922 12.0981 28.7451 12.1449C28.6112 12.2787 16.7106 12.2403 16.5085 12.1056C16.4095 12.0396 16.2411 11.8201 16.1346 11.6181L15.9408 11.2507H22.3082H28.6759L28.7532 11.655ZM15.3711 12.2142L15.6165 12.6876L14.1891 14.0658C11.9254 16.2518 7.75343 20.1472 7.63448 20.1859C7.57493 20.2053 7.39839 20.0459 7.24214 19.8317L6.95811 19.442L11.0052 15.5992C13.2312 13.4858 15.0689 11.753 15.089 11.7486C15.1093 11.7442 15.2361 11.9537 15.3711 12.2142ZM29.0914 14.0864C29.1651 14.6132 29.1863 15.1459 29.1384 15.2704C29.0667 15.457 28.0654 15.4965 23.408 15.4965H17.7645L17.5867 14.8025C17.4889 14.4207 17.3447 13.9127 17.2665 13.6733C17.1883 13.4339 17.1682 13.1941 17.222 13.1406C17.2757 13.0869 19.9381 13.0622 23.1386 13.0859L28.9574 13.1287L29.0914 14.0864ZM16.6147 14.8851C16.7292 15.4021 16.7925 15.846 16.7557 15.8716C16.7187 15.8971 14.9471 17.5502 12.8187 19.5449C10.6903 21.5396 8.90493 23.1717 8.8511 23.1717C8.79728 23.1717 8.75326 22.9973 8.75326 22.784C8.75326 22.5707 8.6407 22.0779 8.5031 21.6887L8.2531 20.9813L8.87123 20.3805C12.6299 16.729 16.1857 13.5395 16.2883 13.7278C16.3534 13.8473 16.5003 14.3681 16.6147 14.8851ZM28.9514 17.252C28.891 17.6786 28.6472 18.6156 28.4097 19.3341L27.9777 20.6405L23.3557 20.6839L18.7336 20.7272V21.133V21.5387H23.0694C25.4825 21.5387 27.4051 21.6028 27.4051 21.6835C27.4051 21.7632 27.1657 22.1857 26.8733 22.6225L26.3416 23.4166L19.6638 23.4592L12.9858 23.502L13.0375 23.9491L13.089 24.3964L19.301 24.4781L25.5131 24.5597L24.4929 25.4579C22.6431 27.0866 20.3823 28.2533 17.9733 28.8224C15.5409 29.3969 11.8272 29.0691 9.69682 28.0919L8.99868 27.7717L12.7209 27.7578L16.443 27.7441V27.2542V26.7643H11.733H7.0229L6.45647 26.2636L5.89005 25.7631L6.50703 25.8457C7.32133 25.9548 8.06593 25.68 8.40052 25.1468C8.54957 24.9094 9.97496 23.486 11.5681 21.9838L14.4646 19.2524H19.2169H23.9692V18.7625V18.2726L19.7562 18.2653L15.5432 18.2579L16.5105 17.3671L17.4777 16.4763H23.2695H29.0613L28.9514 17.252ZM5.34996 18.7217C5.58147 18.9686 5.88874 19.404 6.03272 19.689C6.17653 19.9739 6.58425 20.5414 6.93864 20.95C7.9226 22.0847 8.21056 24.0166 7.50114 24.7247C7.18242 25.0428 5.10994 25.0642 4.79728 24.7526C4.62974 24.5855 4.59195 23.834 4.62892 21.4049C4.6551 19.6821 4.73347 18.2726 4.80284 18.2726C4.87221 18.2726 5.11845 18.4748 5.34996 18.7217Z" fill="black"/>
</svg>
