<svg width="6" height="8" viewBox="0 0 6 8" fill="none" xmlns="http://www.w3.org/2000/svg">
<path fill-rule="evenodd" clip-rule="evenodd" d="M2.22301 0.730241C1.24797 0.864399 0.437022 1.50173 0.131342 2.37414C-0.134765 3.13355 -0.00548089 3.84305 0.601427 4.9541C0.96421 5.61824 1.40315 6.26385 2.01263 7.02977C2.26788 7.35054 2.57066 7.70947 2.58598 7.70947C2.59219 7.70947 2.67453 7.61575 2.76897 7.50118C3.89291 6.1378 4.74582 4.77529 5.03139 3.88703C5.13967 3.55028 5.15594 3.44958 5.15545 3.11962C5.15508 2.86385 5.14985 2.79749 5.11977 2.66648C4.90579 1.73464 4.20011 1.0296 3.23858 0.787029C2.93812 0.711224 2.52795 0.688289 2.22301 0.730241ZM2.88271 2.11896C3.25479 2.22557 3.52828 2.48476 3.64551 2.84189C3.69668 2.99779 3.69662 3.24182 3.64537 3.39735C3.51886 3.78129 3.23856 4.0354 2.83704 4.13018C2.58407 4.18989 2.26288 4.14779 2.03782 4.02543C1.80781 3.90038 1.6346 3.7023 1.53719 3.45299C1.49881 3.35477 1.49546 3.32858 1.49537 3.12693C1.49528 2.92414 1.49853 2.89889 1.53876 2.79073C1.63654 2.52778 1.84146 2.30837 2.09851 2.19139C2.28876 2.10481 2.41331 2.08055 2.62731 2.08841C2.72232 2.09191 2.83551 2.10544 2.88271 2.11896Z" fill="#119156"/>
</svg>
