<svg width="48" height="48" viewBox="0 0 48 48" fill="none" xmlns="http://www.w3.org/2000/svg">
<path fill-rule="evenodd" clip-rule="evenodd" d="M18.9989 0.173502C18.8565 0.33268 18.8438 1.2129 18.8438 10.8929V21.4387H14.4844H10.125V16.9802V12.5217H12.4073C14.6031 12.5217 14.6964 12.5142 14.867 12.3236C15.0413 12.1285 15.0349 12.0604 14.4651 8.08127C13.993 4.7852 13.8556 4.01474 13.7219 3.91579C13.5947 3.82169 12.65 3.79447 9.51225 3.79447C5.77753 3.79447 5.45531 3.80727 5.31994 3.96047C5.21587 4.07829 5.00747 5.28019 4.60172 8.1027C4.077 11.7524 4.04184 12.097 4.17347 12.3003L4.31681 12.5217H6.65841H9V16.9802V21.4387L7.19531 21.4395C5.271 21.4403 4.40803 21.5348 3.786 21.8132C3.27825 22.0405 2.67469 22.5997 2.37075 23.1246C1.99922 23.766 2.00531 24.4496 2.41472 28.0887L2.77322 31.2763L2.32472 31.4844C2.07806 31.599 1.63134 31.922 1.33209 32.2024C0.344344 33.1278 0 34.0738 0 35.8627C0 36.829 0.026625 37.0171 0.214031 37.3758L0.428062 37.7853L0.214031 38.213C0.0091875 38.6225 0 38.7369 0 40.8715C0 42.9507 0.0135 43.1304 0.198844 43.5178C0.464437 44.0728 0.984469 44.4153 1.64625 44.4709L2.15625 44.5136V46.0197C2.15625 48.0036 2.06616 47.9051 3.88022 47.9051C5.02959 47.9051 5.2575 47.8806 5.42044 47.7391C5.54447 47.6315 5.77369 47.0394 6.07219 46.0553L6.53278 44.5375L7.76634 44.5111L9 44.4846V45.6257V46.7668H8.10938H7.21875V47.336V47.9051H9.60938H12V47.336V46.7668H11.0625H10.125V45.6285V44.4901H14.4844H18.8438V46.0881C18.8438 47.5156 18.862 47.7027 19.0152 47.843C19.1732 47.9877 20.3092 48 33.4474 48H47.7082L47.854 47.7891C47.9852 47.5997 48 45.1816 48 23.9461C48 1.17221 47.9938 0.3083 47.8285 0.156996C47.6706 0.012332 46.5352 0 33.4056 0C19.718 0 19.1479 0.00683005 18.9989 0.173502ZM46.875 2.89328V4.64822H33.4219H19.9688V2.89328V1.13834H33.4219H46.875V2.89328ZM13.3309 7.92095C13.573 9.59051 13.7734 11.0739 13.7762 11.2174L13.7812 11.4783H9.51562C7.16953 11.4783 5.25 11.4461 5.25 11.4067C5.25 11.3114 5.97094 6.29312 6.10191 5.47703L6.20484 4.83557L9.54769 4.86043L12.8906 4.88538L13.3309 7.92095ZM32.9062 17.7866V29.7866H30.3464H27.7865L28.0446 27.4862C28.3741 24.5489 28.3811 23.9149 28.091 23.2885C27.7979 22.6557 27.0801 21.9951 26.3858 21.7191C25.8525 21.5072 25.7 21.4958 22.8984 21.459L19.9688 21.4206V13.6035V5.78656H26.4375H32.9062V17.7866ZM46.875 17.7866V29.7866H40.4062H33.9375V17.7866V5.78656H40.4062H46.875V17.7866ZM29.4591 16.5296L29.4844 18.5455H30H30.5156L30.5409 16.5296L30.5662 14.5138H30H29.4338L29.4591 16.5296ZM36.5625 16.5581V18.6024L37.1016 18.5739L37.6406 18.5455L37.6659 16.5296L37.6912 14.5138H37.1269H36.5625V16.5581ZM25.8174 22.7114C26.4242 22.8962 26.8943 23.2845 27.1108 23.7798L27.2931 24.1967L26.9573 27.2525C26.7728 28.9332 26.5976 30.4684 26.5682 30.664L26.5148 31.0198H15.1793C8.94469 31.0198 3.84281 30.9878 3.84169 30.9486C3.84056 30.9094 3.67697 29.4126 3.47822 27.6223C3.06666 23.9159 3.07088 23.827 3.68344 23.2255C4.36191 22.5591 3.79247 22.591 15.1492 22.5837C23.7131 22.5781 25.4482 22.5989 25.8174 22.7114ZM46.875 34.8142V38.7036H38.7307H30.5864L30.3536 38.2276L30.1208 37.7517L30.3417 37.3104C30.5328 36.9284 30.5622 36.7341 30.5603 35.8654C30.5582 34.9355 30.5103 34.5331 30.3363 33.9842L30.2686 33.7708H33.275H36.2812V33.2016V32.6324H33.1406H30V32.8838C30 33.1268 29.9911 33.1228 29.7311 32.7596C29.3459 32.2216 28.7519 31.7353 28.1665 31.479C27.8317 31.3323 27.6589 31.2005 27.6578 31.0909C27.6563 30.9339 28.1757 30.9249 37.2656 30.9249H46.875V34.8142ZM27.6643 32.4541C28.3044 32.7577 28.7926 33.2372 29.1292 33.8925C29.3564 34.3347 29.3873 34.5111 29.4202 35.5511C29.4504 36.5101 29.43 36.7562 29.3044 36.9503L29.1519 37.1858H15.3099C2.56134 37.1858 1.45434 37.1733 1.29647 37.0288C1.149 36.8938 1.125 36.7168 1.125 35.765C1.125 34.481 1.24088 34.0402 1.75884 33.3533C2.11669 32.8787 2.85703 32.3821 3.40622 32.2483C3.56953 32.2086 8.97656 32.1827 15.4219 32.1908L27.1406 32.2055L27.6643 32.4541ZM29.25 38.5138C29.4263 38.6922 29.4375 38.83 29.4375 40.8168C29.4375 42.576 29.413 42.9654 29.2915 43.1409L29.1457 43.3518H15.3068C2.56106 43.3518 1.45434 43.3394 1.29647 43.1948C1.13991 43.0514 1.125 42.8497 1.125 40.8707C1.125 38.83 1.13597 38.6925 1.3125 38.5138C1.49831 38.3258 1.62497 38.3241 15.2812 38.3241C28.9375 38.3241 29.0642 38.3258 29.25 38.5138ZM46.875 43.3043V46.8617H37.8281H28.7812V45.6842V44.5068L29.1638 44.4414C29.5868 44.3691 30.1163 43.956 30.3353 43.5275L30.4735 43.2569H33.3774H36.2812V42.7352V42.2134H33.4219H30.5625V40.9802V39.747H38.7188H46.875V43.3043ZM5.30203 44.751C5.27081 44.8944 5.12334 45.396 4.97428 45.8656L4.70316 46.7194L3.99225 46.7471L3.28125 46.7748V45.6324V44.4901H4.31991H5.35866L5.30203 44.751ZM24.609 45.2727C24.7463 45.7032 24.9158 46.2368 24.9861 46.4585L25.1137 46.8617H22.5412H19.9688V45.6759V44.4901H22.1642H24.3596L24.609 45.2727ZM27.6562 45.6324V46.7748L26.9358 46.7471L26.2153 46.7194L25.9064 45.7233C25.7364 45.1755 25.5967 44.674 25.5956 44.6087C25.5942 44.521 25.8615 44.4901 26.625 44.4901H27.6562V45.6324Z" fill="white"/>
</svg>
