<svg width="44" height="52" viewBox="0 0 44 52" fill="none" xmlns="http://www.w3.org/2000/svg">
<path fill-rule="evenodd" clip-rule="evenodd" d="M31.1025 0.179918C30.5704 0.427781 30.2607 0.735602 30.0295 1.24627C29.8483 1.64656 29.8406 2.2116 29.8385 15.1981L29.8362 28.7327L29.6244 28.8002C29.2799 28.9098 29.1271 29.4499 29.1271 30.5578V31.5625L28.3927 31.6193C27.4733 31.6903 26.4916 32.0108 25.6639 32.5103C25.3122 32.7225 25.0162 32.8877 25.006 32.8775C24.9959 32.8673 25.0381 32.0704 25.0999 31.1066L25.2123 29.3544L25.6475 29.0985C26.9818 28.3141 26.9779 26.3785 25.6402 25.5494L25.1417 25.2404H13.3245H1.50728L1.00879 25.5494C-0.326942 26.3773 -0.338288 28.2418 0.987209 29.079L1.43333 29.3608L1.56238 31.3656C2.30561 42.9103 2.78952 49.3655 2.94511 49.8118C3.17567 50.4724 3.97735 51.3302 4.69485 51.6837L5.27124 51.9676L24.3962 51.9941C37.8456 52.0127 43.5812 51.9883 43.7237 51.9116C44.1897 51.6615 44.1853 51.629 42.7651 44.7228C42.0213 41.1059 41.3639 37.7797 41.3044 37.3312C40.9001 34.2887 38.4265 31.885 35.418 31.6112L34.6479 31.5411L34.5973 30.3002C34.5529 29.2127 34.5216 29.0404 34.344 28.9061C34.2326 28.8218 34.1073 28.7514 34.0655 28.7497C34.0236 28.7478 33.9885 22.6527 33.9873 15.2049C33.9851 2.24097 33.977 1.64606 33.7974 1.25694C33.3047 0.189166 32.1086 -0.288876 31.1025 0.179918ZM32.2674 1.71425C32.468 1.91546 32.47 2.05296 32.47 15.332V28.7464H31.9129H31.3557V15.2869V1.82736L31.5809 1.66923C31.8784 1.46008 32.0236 1.46964 32.2674 1.71425ZM25.0339 27.0696C25.1875 27.305 25.1875 27.3424 25.0339 27.5777L24.8679 27.8318H13.3245H1.78109L1.61516 27.5777C1.46149 27.3424 1.46149 27.305 1.61516 27.0696L1.78109 26.8155H13.3245H24.8679L25.0339 27.0696ZM23.4527 29.534C23.4494 29.877 22.7873 31.3487 22.3169 32.0586C21.7482 32.9169 20.3749 34.255 19.5781 34.7275C18.9175 35.1192 18.0827 35.4713 17.2183 35.723C16.429 35.9528 11.1451 36.0511 10.0323 35.8567C7.32599 35.3838 4.99378 33.6498 3.75237 31.1876C3.48321 30.6538 3.09331 29.621 3.09331 29.4418C3.09331 29.3948 7.67456 29.3561 13.2739 29.3561C22.9027 29.3561 23.4543 29.3658 23.4527 29.534ZM33.0778 30.9313V31.5919H31.9129H30.7479V30.9313V30.2708H31.9129H33.0778V30.9313ZM36.0626 33.2721C37.6609 33.6897 39.0274 34.965 39.5691 36.5446C39.676 36.8563 39.7635 37.1729 39.7635 37.248C39.7635 37.3611 38.4152 37.3845 31.9016 37.3845H24.0396L24.1098 37.0034C24.4016 35.418 26.0354 33.7314 27.7196 33.2771C28.5402 33.0557 35.2192 33.0516 36.0626 33.2721ZM23.3782 34.0055C23.3465 34.5513 23.2563 34.9585 23.084 35.332C22.804 35.9396 22.4392 37.2819 22.4459 37.6802C22.4483 37.8249 21.8677 40.7674 21.1555 44.2188L19.8607 50.4941H12.8413C5.25827 50.4941 5.41873 50.5048 4.83252 49.9557C4.30333 49.46 4.31255 49.5328 3.79704 41.8137C3.52799 37.7847 3.28963 34.2431 3.26735 33.9436L3.22673 33.399L3.87403 34.1176C5.13297 35.5151 6.83175 36.5787 8.7154 37.1485C9.60876 37.4187 9.69152 37.425 12.8361 37.4627C16.4053 37.5054 17.0651 37.4375 18.6428 36.8648C20.1926 36.3022 21.781 35.1855 22.8212 33.9273C23.1416 33.5398 23.4083 33.2216 23.4139 33.2203C23.4195 33.219 23.4033 33.5724 23.3782 34.0055ZM25.7843 39.1178C25.7843 39.3684 24.4831 49.9377 24.4119 50.2654C24.3631 50.4898 24.3347 50.4941 22.8844 50.4941H21.4064L21.4635 50.2654C21.4949 50.1396 22.0254 47.5902 22.6424 44.5998C23.2594 41.6095 23.7842 39.1058 23.8087 39.0359C23.8401 38.9463 24.1376 38.9089 24.8188 38.9089C25.7255 38.9089 25.7843 38.9216 25.7843 39.1178ZM29.2302 39.1883C29.2339 39.7858 28.8135 49.4569 28.762 49.9605L28.7074 50.4941H27.3471C26.1195 50.4941 25.9868 50.4767 25.9862 50.3162C25.9853 50.0751 27.3094 39.1961 27.3592 39.0359C27.387 38.9466 27.6703 38.9089 28.3136 38.9089H29.2284L29.2302 39.1883ZM33.0174 39.1375C33.0612 39.3606 33.4926 49.5084 33.4862 50.1638L33.483 50.4941H31.9298C31.0754 50.4941 30.357 50.4746 30.3333 50.4507C30.2829 50.4001 30.7419 39.2244 30.8022 39.0359C30.8313 38.9449 31.145 38.9089 31.9078 38.9089C32.9312 38.9089 32.9744 38.9177 33.0174 39.1375ZM36.468 39.2391C36.5511 39.7257 37.8388 50.1484 37.8388 50.335C37.8388 50.4715 37.6449 50.4941 36.4732 50.4941C35.1381 50.4941 35.1066 50.489 35.062 50.2654C35.0145 50.0269 34.5894 40.0954 34.5944 39.3408L34.5973 38.9089H35.5044H36.4114L36.468 39.2391ZM40.0067 39.0867C40.0366 39.1845 40.5664 41.7112 41.1841 44.7015C41.8019 47.6918 42.331 50.2197 42.36 50.319C42.409 50.4872 42.3095 50.4976 40.9134 50.4714L39.414 50.4433L38.7325 45.0063C38.3576 42.016 38.0487 39.4209 38.0461 39.2391L38.0414 38.9089H38.997C39.8187 38.9089 39.96 38.9338 40.0067 39.0867ZM5.20884 42.15C4.9403 42.3682 4.93756 42.4099 5.06044 44.4213C5.12497 45.4772 5.17653 45.7632 5.33942 45.9711C5.59722 46.2998 6.14039 46.3193 6.44783 46.0109C6.65367 45.8044 6.65924 45.738 6.58853 44.3195C6.5077 42.6972 6.43284 42.3084 6.16146 42.1019C5.90274 41.9051 5.48427 41.9262 5.20884 42.15Z" fill="white" fill-opacity="0.9"/>
</svg>
