<svg width="29" height="40" viewBox="0 0 29 40" fill="none" xmlns="http://www.w3.org/2000/svg">
<path fill-rule="evenodd" clip-rule="evenodd" d="M25.2366 0.18469C25.046 0.29213 24.4574 0.722048 23.9287 1.13994C22.7535 2.06829 20.7668 3.02464 19.125 3.45203C18.4506 3.62767 16.4642 4.02689 14.7107 4.33908C9.9605 5.18515 7.8459 5.95115 5.76792 7.57841C3.80079 9.11896 1.88566 12.2189 1.02602 15.2539C0.632168 16.6448 0.578382 17.1138 0.581161 19.1306C0.585575 22.2847 1.1694 24.38 2.79369 27.0717L3.46531 28.1849L2.55712 30.0267C1.09501 32.9911 0.00795921 36.5428 0.000111621 38.3813C-0.00299472 39.1011 0.0561885 39.2467 0.499577 39.6076C1.13523 40.1254 1.79394 40.1308 2.41668 39.6236C2.83881 39.2799 2.93593 39.0342 3.18362 37.6853C4.45558 30.7556 9.84736 22.8262 18.0355 15.8432C19.0099 15.0123 19.8766 14.1557 19.9614 13.9397C20.3033 13.0694 19.5082 12.0102 18.5132 12.0102C17.9459 12.0102 17.6488 12.2031 15.6773 13.8522C12.4806 16.526 8.62445 20.6408 6.27606 23.8844C5.77479 24.5768 5.30394 25.1435 5.22987 25.1435C5.00671 25.1435 4.13595 22.9338 3.833 21.5986C3.61654 20.6444 3.57191 19.9508 3.64434 18.6713C3.76532 16.5333 4.05176 15.5198 5.15843 13.3137C6.52391 10.5916 8.17255 9.16485 11.0659 8.20137C11.5835 8.02906 13.5532 7.60579 15.4433 7.26084C19.9206 6.44373 21.0691 6.12726 23.1448 5.13815C24.0919 4.68688 24.8915 4.35744 24.9219 4.40585C25.1093 4.7057 25.6866 9.00108 25.809 11.0057C26.2532 18.2812 24.6281 23.4906 21.0052 26.4038C19.2592 27.8078 16.3875 28.8058 13.4236 29.0385C12.1858 29.1357 11.9647 29.2009 11.5663 29.5866C10.9766 30.1572 10.954 30.9594 11.5101 31.5826C11.8928 32.0115 11.9553 32.0256 13.3493 31.9989C16.2768 31.9427 19.5079 31.0145 21.7623 29.582C23.3416 28.5787 25.382 26.4895 26.2863 24.9503C29.2379 19.9258 29.8095 12.1058 27.8648 3.34997C27.3648 1.09896 27.1215 0.541821 26.503 0.232318C25.9096 -0.0646838 25.6929 -0.0729118 25.2366 0.18469Z" fill="white"/>
</svg>
