<svg width="21" height="16" viewBox="0 0 21 16" fill="none" xmlns="http://www.w3.org/2000/svg">
<path fill-rule="evenodd" clip-rule="evenodd" d="M19.4068 0.0869154C18.0756 0.557301 1.6682 6.61153 1.42654 6.72157C0.623514 7.08714 0.529635 7.57 1.19813 7.8966C1.26268 7.92812 2.37323 8.26923 3.66603 8.65463L4.32601 8.85136C5.40303 9.17242 6.56544 9.02557 7.52878 8.44676L11.3541 6.1484C14.2896 4.38456 16.7506 2.92163 16.8228 2.89747C17.0041 2.83676 17.1601 2.84243 17.2329 2.91239C17.2839 2.96134 17.286 2.98591 17.2455 3.05786C17.2187 3.10546 15.2693 4.80584 12.9135 6.83647C10.5577 8.86709 8.62392 10.5444 8.61614 10.5639C8.60839 10.5833 8.52871 11.5971 8.43906 12.8168L8.28919 14.8562C8.28243 14.9482 8.36174 15.0232 8.45318 15.0114C8.55058 14.9988 8.70482 14.9505 8.79592 14.9041C8.88706 14.8577 9.50037 14.3241 10.1589 13.7183C10.8174 13.1125 11.379 12.6084 11.4069 12.5981C11.4347 12.5879 12.4834 13.3013 13.7372 14.1836C14.991 15.0659 16.1152 15.8314 16.2352 15.8847C16.5502 16.0245 16.905 16.0383 17.1354 15.9199C17.3413 15.8141 17.5424 15.5513 17.627 15.2777C17.6598 15.1718 18.3766 11.9907 19.22 8.20851C20.6241 1.91143 20.7534 1.30177 20.7539 0.974938C20.7544 0.666144 20.741 0.592693 20.6549 0.430162C20.5941 0.315571 20.4905 0.198576 20.3893 0.130197C20.1578 -0.0261726 19.7747 -0.0430419 19.4068 0.0869154Z" fill="white"/>
</svg>
