<svg width="16" height="18" viewBox="0 0 16 18" fill="none" xmlns="http://www.w3.org/2000/svg">
<path fill-rule="evenodd" clip-rule="evenodd" d="M6.19712 0.0898478C5.79892 0.129731 5.22661 0.253639 4.84224 0.383185C3.93655 0.688467 3.26509 1.11436 2.55245 1.83559C1.83334 2.56334 1.3986 3.26461 1.09699 4.18329C0.832134 4.98997 0.82666 5.05424 0.82666 7.34953C0.82666 9.20803 0.834808 9.47527 0.900941 9.77988C1.28263 11.5388 2.35961 13.0355 3.83082 13.8517C4.03422 13.9645 4.16101 14.1782 4.16257 14.4108L4.17013 15.5363C4.18001 17.0087 4.18194 17.0398 4.26729 17.1114C4.46837 17.2802 4.49211 17.2619 5.8458 15.8922L5.96306 15.7735C6.70602 15.0218 7.71631 14.5947 8.77319 14.5855L9.03667 14.5832C10.7948 14.5679 10.9787 14.5596 11.3001 14.4805C13.4111 13.9614 15.0137 12.488 15.6743 10.4591C15.9241 9.69185 15.9298 9.62269 15.9298 7.34953C15.9298 5.4902 15.9216 5.22254 15.8551 4.90645C15.6116 3.75013 15.1026 2.77002 14.3102 1.93231C13.313 0.8779 12.0953 0.266627 10.6741 0.106929C10.3133 0.0663775 6.57375 0.0520948 6.19712 0.0898478ZM9.93347 2.5088C11.7366 2.88582 13.0677 4.53313 13.0688 6.389C13.069 6.72874 13.0196 7.18921 12.9623 7.38131C12.9278 7.49691 12.7233 7.58641 12.6012 7.5393C12.4308 7.47357 12.398 7.36106 12.455 7.0374C12.4857 6.8635 12.4971 6.55998 12.4844 6.25762C12.4491 5.41711 12.1565 4.70841 11.5958 4.10516C10.94 3.39971 10.2062 3.06269 9.1898 3C8.82831 2.97774 8.71996 2.95632 8.65971 2.89518C8.56094 2.79495 8.56391 2.68846 8.6693 2.55252C8.75173 2.44615 8.76897 2.44248 9.18544 2.44248C9.4224 2.44248 9.75903 2.47234 9.93347 2.5088ZM5.80193 3.4664C5.9686 3.54667 7.30866 4.91417 7.40401 5.10131C7.63932 5.56307 7.45413 6.05891 6.96281 6.28263C6.54523 6.47274 6.32461 6.81042 6.37959 7.17518C6.50387 7.99918 7.58928 9.24161 8.48045 9.57997C8.98902 9.77307 9.41087 9.61166 9.65084 9.13215C9.7831 8.86784 9.9452 8.69281 10.1196 8.62595C10.2807 8.56414 10.6184 8.57045 10.7767 8.63819C10.9198 8.69941 12.282 10.0884 12.4134 10.307C12.5177 10.4807 12.5186 10.8405 12.4152 11.0664C12.3165 11.2822 11.3806 12.2152 11.1355 12.3421C10.6419 12.5978 9.74718 12.4524 8.7779 11.959C8.45263 11.7934 7.58031 11.2066 7.20536 10.9012C5.51694 9.52593 4.10959 7.55893 3.76601 6.0942C3.63967 5.55568 3.66391 5.01352 3.8279 4.70937C3.98437 4.41917 4.93693 3.46711 5.13043 3.40748C5.3097 3.35227 5.6218 3.37966 5.80193 3.4664ZM9.83467 3.65241C10.3336 3.78192 10.6926 3.99557 11.0976 4.40413C11.6532 4.96466 11.9166 5.58696 11.9224 6.35292C11.924 6.56783 11.9045 6.77388 11.8777 6.82475C11.8056 6.96131 11.6486 7.00679 11.5065 6.93224C11.3587 6.85469 11.3283 6.75998 11.362 6.48255C11.3965 6.19815 11.2975 5.71567 11.1362 5.38241C10.9791 5.05788 10.609 4.6565 10.2918 4.46656C9.91969 4.24376 9.57726 4.15055 9.12605 4.1493C8.69284 4.14809 8.58399 4.09079 8.58399 3.86402C8.58399 3.63692 8.71066 3.57006 9.14075 3.57006C9.38083 3.57006 9.63232 3.59992 9.83467 3.65241ZM9.87405 4.90022C10.3893 5.1576 10.7581 5.69466 10.7968 6.24409C10.8141 6.48998 10.8058 6.53567 10.7291 6.61347C10.5361 6.80934 10.3011 6.65048 10.2597 6.29621C10.2267 6.01323 10.1136 5.79732 9.88767 5.586C9.70158 5.41193 9.38914 5.28231 9.15564 5.28231C9.0826 5.28231 9.01251 5.24342 8.95737 5.17226C8.84992 5.0337 8.85049 4.9873 8.96132 4.84435C9.04663 4.73426 9.06297 4.73008 9.33207 4.74963C9.53458 4.76433 9.68664 4.80659 9.87405 4.90022Z" fill="white"/>
</svg>
