<svg width="19" height="18" viewBox="0 0 19 18" fill="none" xmlns="http://www.w3.org/2000/svg">
<path fill-rule="evenodd" clip-rule="evenodd" d="M8.71951 0.0537105C4.55834 0.564788 1.28796 3.88195 0.857323 8.02844C0.793509 8.64297 0.83216 9.80654 0.935947 10.3939C1.10022 11.3238 1.37207 12.142 1.79458 12.978C1.9312 13.2485 1.96231 13.56 1.88184 13.8521L1.3743 15.6945C1.02636 16.9575 0.747264 17.9949 0.754027 17.9999C0.760827 18.0049 1.8205 17.7322 3.10887 17.3939C4.98445 16.9015 5.47018 16.786 5.54582 16.8147C5.59777 16.8343 5.84429 16.9424 6.09366 17.0548C6.90355 17.4198 7.75407 17.6618 8.64901 17.7821C9.27098 17.8657 10.3625 17.8652 10.9675 17.781C12.9534 17.5048 14.7277 16.632 16.126 15.2436C16.8573 14.5175 17.3436 13.8534 17.8065 12.9486C18.2234 12.1337 18.5176 11.2454 18.6819 10.3048C18.778 9.75502 18.7779 8.13963 18.6817 7.56351C18.5192 6.59021 18.2684 5.81259 17.8399 4.95367C16.6204 2.5094 14.3684 0.767004 11.6757 0.184428C10.8364 0.00282806 9.58457 -0.0525231 8.71951 0.0537105ZM11.0809 1.6079C12.1647 1.80711 13.0634 2.16697 13.9523 2.75762C15.4699 3.76603 16.587 5.33193 17.0286 7.06967C17.3528 8.34582 17.3273 9.79528 16.959 11.0224C16.3635 13.0065 14.9443 14.6766 13.087 15.5787C12.0072 16.1031 11.008 16.3318 9.7963 16.3318C8.40751 16.3318 7.17638 15.9969 5.9199 15.2772C5.78428 15.1995 5.62361 15.1781 5.4724 15.2176L4.31782 15.5191C3.55304 15.7188 2.92151 15.8765 2.91441 15.8694C2.9073 15.8624 3.06421 15.2676 3.2631 14.5477C3.46194 13.8278 3.62611 13.2123 3.62788 13.18C3.62966 13.1476 3.53188 12.9606 3.4106 12.7644C1.62872 9.88206 2.09574 6.0809 4.5271 3.67692C5.73654 2.48109 7.2677 1.7462 8.98399 1.53779C9.44753 1.4815 10.6034 1.52014 11.0809 1.6079ZM6.26923 4.88443C6.05074 4.99194 5.65149 5.46058 5.48457 5.80549C5.1567 6.483 5.16339 7.33704 5.50274 8.12784C5.91978 9.0996 7.01093 10.4794 8.0881 11.397C8.84313 12.0402 9.47398 12.4171 10.4008 12.7786C11.3476 13.148 11.5292 13.1905 12.1577 13.1902C12.652 13.1901 12.7304 13.1807 12.9602 13.0946C13.3381 12.9531 13.6202 12.7749 13.9012 12.5C14.1192 12.2866 14.1631 12.2199 14.2345 11.993C14.3235 11.7101 14.3743 11.2549 14.3345 11.0973C14.3137 11.0149 14.207 10.948 13.6702 10.6809C12.6867 10.1915 12.2903 10.0231 12.1219 10.0231C11.9838 10.0231 11.9603 10.04 11.7934 10.2578C11.4119 10.7559 11.0619 11.1416 10.9707 11.1643C10.8615 11.1916 10.6468 11.1135 10.1511 10.866C9.34843 10.4654 8.69359 9.9296 8.1306 9.21297C7.82419 8.82295 7.54827 8.37849 7.54827 8.27496C7.54827 8.23061 7.69033 8.01015 7.86397 7.78506C8.20428 7.34387 8.30391 7.17924 8.30391 7.05806C8.30391 7.01556 8.23012 6.80771 8.13993 6.59622C8.04975 6.38469 7.86787 5.94973 7.73574 5.6296C7.57196 5.23283 7.45698 5.00869 7.37454 4.92551C7.29712 4.8474 7.1917 4.80347 7.08172 4.80348L6.84363 4.8035C6.5 4.8035 6.4071 4.81661 6.26923 4.88443Z" fill="white"/>
</svg>
